%TF.GenerationSoftware,KiCad,Pcbnew,(5.1.6-0-10_14)*%
%TF.CreationDate,2020-12-10T12:41:56-07:00*%
%TF.ProjectId,DX7-JTAG,4458372d-4a54-4414-972e-6b696361645f,rev?*%
%TF.SameCoordinates,Original*%
%TF.FileFunction,Legend,Top*%
%TF.FilePolarity,Positive*%
%FSLAX46Y46*%
G04 Gerber Fmt 4.6, Leading zero omitted, Abs format (unit mm)*
G04 Created by KiCad (PCBNEW (5.1.6-0-10_14)) date 2020-12-10 12:41:56*
%MOMM*%
%LPD*%
G01*
G04 APERTURE LIST*
%ADD10C,0.150000*%
%ADD11C,0.120000*%
G04 APERTURE END LIST*
D10*
X42370476Y-28916380D02*
X42989523Y-28916380D01*
X42656190Y-29297333D01*
X42799047Y-29297333D01*
X42894285Y-29344952D01*
X42941904Y-29392571D01*
X42989523Y-29487809D01*
X42989523Y-29725904D01*
X42941904Y-29821142D01*
X42894285Y-29868761D01*
X42799047Y-29916380D01*
X42513333Y-29916380D01*
X42418095Y-29868761D01*
X42370476Y-29821142D01*
X43465714Y-29916380D02*
X43656190Y-29916380D01*
X43751428Y-29868761D01*
X43799047Y-29821142D01*
X43894285Y-29678285D01*
X43941904Y-29487809D01*
X43941904Y-29106857D01*
X43894285Y-29011619D01*
X43846666Y-28964000D01*
X43751428Y-28916380D01*
X43560952Y-28916380D01*
X43465714Y-28964000D01*
X43418095Y-29011619D01*
X43370476Y-29106857D01*
X43370476Y-29344952D01*
X43418095Y-29440190D01*
X43465714Y-29487809D01*
X43560952Y-29535428D01*
X43751428Y-29535428D01*
X43846666Y-29487809D01*
X43894285Y-29440190D01*
X43941904Y-29344952D01*
X33750285Y-29249714D02*
X33750285Y-29916380D01*
X33512190Y-28868761D02*
X33274095Y-29583047D01*
X33893142Y-29583047D01*
X34464571Y-28916380D02*
X34559809Y-28916380D01*
X34655047Y-28964000D01*
X34702666Y-29011619D01*
X34750285Y-29106857D01*
X34797904Y-29297333D01*
X34797904Y-29535428D01*
X34750285Y-29725904D01*
X34702666Y-29821142D01*
X34655047Y-29868761D01*
X34559809Y-29916380D01*
X34464571Y-29916380D01*
X34369333Y-29868761D01*
X34321714Y-29821142D01*
X34274095Y-29725904D01*
X34226476Y-29535428D01*
X34226476Y-29297333D01*
X34274095Y-29106857D01*
X34321714Y-29011619D01*
X34369333Y-28964000D01*
X34464571Y-28916380D01*
X33750285Y-47553619D02*
X33797904Y-47506000D01*
X33893142Y-47458380D01*
X34131238Y-47458380D01*
X34226476Y-47506000D01*
X34274095Y-47553619D01*
X34321714Y-47648857D01*
X34321714Y-47744095D01*
X34274095Y-47886952D01*
X33702666Y-48458380D01*
X34321714Y-48458380D01*
X43465714Y-48458380D02*
X42894285Y-48458380D01*
X43180000Y-48458380D02*
X43180000Y-47458380D01*
X43084761Y-47601238D01*
X42989523Y-47696476D01*
X42894285Y-47744095D01*
D11*
X51450000Y-39700000D02*
X51900000Y-39700000D01*
X51900000Y-38176000D02*
X51450000Y-38176000D01*
X51900000Y-39700000D02*
X51900000Y-38176000D01*
X25400000Y-39724000D02*
X25850000Y-39724000D01*
X25400000Y-38200000D02*
X25400000Y-39724000D01*
X25850000Y-38200000D02*
X25400000Y-38200000D01*
%TO.C,LCMXO2 JTAG*%
X51410000Y-44951500D02*
X51410000Y-46011500D01*
X51410000Y-46011500D02*
X50350000Y-46011500D01*
X51410000Y-31890000D02*
X51400000Y-43900000D01*
X47290000Y-46010000D02*
X49250000Y-46010000D01*
X47290000Y-31890000D02*
X47290000Y-46010000D01*
X47290000Y-31890000D02*
X51410000Y-31890000D01*
%TO.C,XC7K70T JTAG*%
X25864000Y-32956500D02*
X25864000Y-31896500D01*
X25864000Y-31896500D02*
X26924000Y-31896500D01*
X25864000Y-46018000D02*
X25874000Y-34008000D01*
X29984000Y-31898000D02*
X28024000Y-31898000D01*
X29984000Y-46018000D02*
X29984000Y-31898000D01*
X29984000Y-46018000D02*
X25864000Y-46018000D01*
%TO.C,LCMXO2 JTAG*%
D10*
X46426380Y-43425523D02*
X46426380Y-43901714D01*
X45426380Y-43901714D01*
X46331142Y-42520761D02*
X46378761Y-42568380D01*
X46426380Y-42711238D01*
X46426380Y-42806476D01*
X46378761Y-42949333D01*
X46283523Y-43044571D01*
X46188285Y-43092190D01*
X45997809Y-43139809D01*
X45854952Y-43139809D01*
X45664476Y-43092190D01*
X45569238Y-43044571D01*
X45474000Y-42949333D01*
X45426380Y-42806476D01*
X45426380Y-42711238D01*
X45474000Y-42568380D01*
X45521619Y-42520761D01*
X46426380Y-42092190D02*
X45426380Y-42092190D01*
X46140666Y-41758857D01*
X45426380Y-41425523D01*
X46426380Y-41425523D01*
X45426380Y-41044571D02*
X46426380Y-40377904D01*
X45426380Y-40377904D02*
X46426380Y-41044571D01*
X45426380Y-39806476D02*
X45426380Y-39616000D01*
X45474000Y-39520761D01*
X45569238Y-39425523D01*
X45759714Y-39377904D01*
X46093047Y-39377904D01*
X46283523Y-39425523D01*
X46378761Y-39520761D01*
X46426380Y-39616000D01*
X46426380Y-39806476D01*
X46378761Y-39901714D01*
X46283523Y-39996952D01*
X46093047Y-40044571D01*
X45759714Y-40044571D01*
X45569238Y-39996952D01*
X45474000Y-39901714D01*
X45426380Y-39806476D01*
X45521619Y-38996952D02*
X45474000Y-38949333D01*
X45426380Y-38854095D01*
X45426380Y-38616000D01*
X45474000Y-38520761D01*
X45521619Y-38473142D01*
X45616857Y-38425523D01*
X45712095Y-38425523D01*
X45854952Y-38473142D01*
X46426380Y-39044571D01*
X46426380Y-38425523D01*
X45426380Y-36949333D02*
X46140666Y-36949333D01*
X46283523Y-36996952D01*
X46378761Y-37092190D01*
X46426380Y-37235047D01*
X46426380Y-37330285D01*
X45426380Y-36616000D02*
X45426380Y-36044571D01*
X46426380Y-36330285D02*
X45426380Y-36330285D01*
X46140666Y-35758857D02*
X46140666Y-35282666D01*
X46426380Y-35854095D02*
X45426380Y-35520761D01*
X46426380Y-35187428D01*
X45474000Y-34330285D02*
X45426380Y-34425523D01*
X45426380Y-34568380D01*
X45474000Y-34711238D01*
X45569238Y-34806476D01*
X45664476Y-34854095D01*
X45854952Y-34901714D01*
X45997809Y-34901714D01*
X46188285Y-34854095D01*
X46283523Y-34806476D01*
X46378761Y-34711238D01*
X46426380Y-34568380D01*
X46426380Y-34473142D01*
X46378761Y-34330285D01*
X46331142Y-34282666D01*
X45997809Y-34282666D01*
X45997809Y-34473142D01*
%TO.C,XC7K70T JTAG*%
X30948380Y-44330285D02*
X31948380Y-43663619D01*
X30948380Y-43663619D02*
X31948380Y-44330285D01*
X31853142Y-42711238D02*
X31900761Y-42758857D01*
X31948380Y-42901714D01*
X31948380Y-42996952D01*
X31900761Y-43139809D01*
X31805523Y-43235047D01*
X31710285Y-43282666D01*
X31519809Y-43330285D01*
X31376952Y-43330285D01*
X31186476Y-43282666D01*
X31091238Y-43235047D01*
X30996000Y-43139809D01*
X30948380Y-42996952D01*
X30948380Y-42901714D01*
X30996000Y-42758857D01*
X31043619Y-42711238D01*
X30948380Y-42377904D02*
X30948380Y-41711238D01*
X31948380Y-42139809D01*
X31948380Y-41330285D02*
X30948380Y-41330285D01*
X31948380Y-40758857D02*
X31376952Y-41187428D01*
X30948380Y-40758857D02*
X31519809Y-41330285D01*
X30948380Y-40425523D02*
X30948380Y-39758857D01*
X31948380Y-40187428D01*
X30948380Y-39187428D02*
X30948380Y-39092190D01*
X30996000Y-38996952D01*
X31043619Y-38949333D01*
X31138857Y-38901714D01*
X31329333Y-38854095D01*
X31567428Y-38854095D01*
X31757904Y-38901714D01*
X31853142Y-38949333D01*
X31900761Y-38996952D01*
X31948380Y-39092190D01*
X31948380Y-39187428D01*
X31900761Y-39282666D01*
X31853142Y-39330285D01*
X31757904Y-39377904D01*
X31567428Y-39425523D01*
X31329333Y-39425523D01*
X31138857Y-39377904D01*
X31043619Y-39330285D01*
X30996000Y-39282666D01*
X30948380Y-39187428D01*
X30948380Y-38568380D02*
X30948380Y-37996952D01*
X31948380Y-38282666D02*
X30948380Y-38282666D01*
X30948380Y-36616000D02*
X31662666Y-36616000D01*
X31805523Y-36663619D01*
X31900761Y-36758857D01*
X31948380Y-36901714D01*
X31948380Y-36996952D01*
X30948380Y-36282666D02*
X30948380Y-35711238D01*
X31948380Y-35996952D02*
X30948380Y-35996952D01*
X31662666Y-35425523D02*
X31662666Y-34949333D01*
X31948380Y-35520761D02*
X30948380Y-35187428D01*
X31948380Y-34854095D01*
X30996000Y-33996952D02*
X30948380Y-34092190D01*
X30948380Y-34235047D01*
X30996000Y-34377904D01*
X31091238Y-34473142D01*
X31186476Y-34520761D01*
X31376952Y-34568380D01*
X31519809Y-34568380D01*
X31710285Y-34520761D01*
X31805523Y-34473142D01*
X31900761Y-34377904D01*
X31948380Y-34235047D01*
X31948380Y-34139809D01*
X31900761Y-33996952D01*
X31853142Y-33949333D01*
X31519809Y-33949333D01*
X31519809Y-34139809D01*
%TD*%
M02*
