%TF.GenerationSoftware,KiCad,Pcbnew,(5.1.6-0-10_14)*%
%TF.CreationDate,2020-12-10T12:41:56-07:00*%
%TF.ProjectId,DX7-JTAG,4458372d-4a54-4414-972e-6b696361645f,rev?*%
%TF.SameCoordinates,Original*%
%TF.FileFunction,Copper,L2,Bot*%
%TF.FilePolarity,Positive*%
%FSLAX46Y46*%
G04 Gerber Fmt 4.6, Leading zero omitted, Abs format (unit mm)*
G04 Created by KiCad (PCBNEW (5.1.6-0-10_14)) date 2020-12-10 12:41:56*
%MOMM*%
%LPD*%
G01*
G04 APERTURE LIST*
%TA.AperFunction,ComponentPad*%
%ADD10C,1.350000*%
%TD*%
%TA.AperFunction,ComponentPad*%
%ADD11O,1.350000X1.350000*%
%TD*%
%TA.AperFunction,ComponentPad*%
%ADD12R,1.350000X1.350000*%
%TD*%
%TA.AperFunction,SMDPad,CuDef*%
%ADD13R,1.260000X0.610000*%
%TD*%
%TA.AperFunction,ViaPad*%
%ADD14C,0.800000*%
%TD*%
%TA.AperFunction,Conductor*%
%ADD15C,0.250000*%
%TD*%
G04 APERTURE END LIST*
D10*
%TO.P,LCMXO2 JTAG,13*%
%TO.N,GND*%
X50350000Y-32950000D03*
D11*
%TO.P,LCMXO2 JTAG,14*%
%TO.N,Net-(J3-Pad14)*%
X48350000Y-32950000D03*
%TO.P,LCMXO2 JTAG,11*%
%TO.N,GND*%
X50350000Y-34950000D03*
%TO.P,LCMXO2 JTAG,12*%
%TO.N,Net-(J3-Pad12)*%
X48350000Y-34950000D03*
%TO.P,LCMXO2 JTAG,9*%
%TO.N,GND*%
X50350000Y-36950000D03*
%TO.P,LCMXO2 JTAG,10*%
%TO.N,/LTDI*%
X48350000Y-36950000D03*
%TO.P,LCMXO2 JTAG,7*%
%TO.N,GND*%
X50350000Y-38950000D03*
%TO.P,LCMXO2 JTAG,8*%
%TO.N,/LTDO*%
X48350000Y-38950000D03*
%TO.P,LCMXO2 JTAG,5*%
%TO.N,GND*%
X50350000Y-40950000D03*
%TO.P,LCMXO2 JTAG,6*%
%TO.N,/LTCK*%
X48350000Y-40950000D03*
%TO.P,LCMXO2 JTAG,3*%
%TO.N,GND*%
X50350000Y-42950000D03*
%TO.P,LCMXO2 JTAG,4*%
%TO.N,/LTMS*%
X48350000Y-42950000D03*
D12*
%TO.P,LCMXO2 JTAG,1*%
%TO.N,GND*%
X50350000Y-44950000D03*
D11*
%TO.P,LCMXO2 JTAG,2*%
%TO.N,/LVREF*%
X48350000Y-44950000D03*
%TD*%
D10*
%TO.P,XC7K70T JTAG,13*%
%TO.N,GND*%
X26924000Y-44958000D03*
D11*
%TO.P,XC7K70T JTAG,14*%
%TO.N,Net-(J1-Pad14)*%
X28924000Y-44958000D03*
%TO.P,XC7K70T JTAG,11*%
%TO.N,GND*%
X26924000Y-42958000D03*
%TO.P,XC7K70T JTAG,12*%
%TO.N,Net-(J1-Pad12)*%
X28924000Y-42958000D03*
%TO.P,XC7K70T JTAG,9*%
%TO.N,GND*%
X26924000Y-40958000D03*
%TO.P,XC7K70T JTAG,10*%
%TO.N,/KTDI*%
X28924000Y-40958000D03*
%TO.P,XC7K70T JTAG,7*%
%TO.N,GND*%
X26924000Y-38958000D03*
%TO.P,XC7K70T JTAG,8*%
%TO.N,/KTDO*%
X28924000Y-38958000D03*
%TO.P,XC7K70T JTAG,5*%
%TO.N,GND*%
X26924000Y-36958000D03*
%TO.P,XC7K70T JTAG,6*%
%TO.N,/KTCK*%
X28924000Y-36958000D03*
%TO.P,XC7K70T JTAG,3*%
%TO.N,GND*%
X26924000Y-34958000D03*
%TO.P,XC7K70T JTAG,4*%
%TO.N,/KTMS*%
X28924000Y-34958000D03*
D12*
%TO.P,XC7K70T JTAG,1*%
%TO.N,GND*%
X26924000Y-32958000D03*
D11*
%TO.P,XC7K70T JTAG,2*%
%TO.N,/KVREF*%
X28924000Y-32958000D03*
%TD*%
D13*
%TO.P,J2,6*%
%TO.N,/KTMS*%
X34018000Y-46108000D03*
%TO.P,J2,4*%
%TO.N,/KTCK*%
X34018000Y-47108000D03*
%TO.P,J2,2*%
%TO.N,/KVREF*%
X34018000Y-48108000D03*
%TO.P,J2,8*%
%TO.N,/KTDO*%
X34018000Y-45108000D03*
%TO.P,J2,10*%
%TO.N,/KTDI*%
X34018000Y-44108000D03*
%TO.P,J2,5*%
%TO.N,/LTMS*%
X43198000Y-46108000D03*
%TO.P,J2,3*%
%TO.N,/LTCK*%
X43198000Y-47108000D03*
%TO.P,J2,1*%
%TO.N,/LVREF*%
X43198000Y-48108000D03*
%TO.P,J2,7*%
%TO.N,/LTDO*%
X43198000Y-45108000D03*
%TO.P,J2,9*%
%TO.N,/LTDI*%
X43198000Y-44108000D03*
%TO.P,J2,11*%
%TO.N,Net-(J2-Pad11)*%
X43198000Y-43108000D03*
%TO.P,J2,12*%
%TO.N,GND*%
X34018000Y-43108000D03*
%TO.P,J2,13*%
%TO.N,Net-(J2-Pad13)*%
X43198000Y-42108000D03*
%TO.P,J2,14*%
%TO.N,Net-(J2-Pad14)*%
X34018000Y-42108000D03*
%TO.P,J2,15*%
%TO.N,Net-(J2-Pad15)*%
X43198000Y-41108000D03*
%TO.P,J2,16*%
%TO.N,Net-(J2-Pad16)*%
X34018000Y-41108000D03*
%TO.P,J2,17*%
%TO.N,Net-(J2-Pad17)*%
X43198000Y-40108000D03*
%TO.P,J2,18*%
%TO.N,Net-(J2-Pad18)*%
X34018000Y-40108000D03*
%TO.P,J2,19*%
%TO.N,Net-(J2-Pad19)*%
X43198000Y-39108000D03*
%TO.P,J2,20*%
%TO.N,Net-(J2-Pad20)*%
X34018000Y-39108000D03*
%TO.P,J2,21*%
%TO.N,Net-(J2-Pad21)*%
X43198000Y-38108000D03*
%TO.P,J2,22*%
%TO.N,Net-(J2-Pad22)*%
X34018000Y-38108000D03*
%TO.P,J2,23*%
%TO.N,Net-(J2-Pad23)*%
X43198000Y-37108000D03*
%TO.P,J2,24*%
%TO.N,Net-(J2-Pad24)*%
X34018000Y-37108000D03*
%TO.P,J2,25*%
%TO.N,Net-(J2-Pad25)*%
X43198000Y-36108000D03*
%TO.P,J2,26*%
%TO.N,Net-(J2-Pad26)*%
X34018000Y-36108000D03*
%TO.P,J2,27*%
%TO.N,Net-(J2-Pad27)*%
X43198000Y-35108000D03*
%TO.P,J2,28*%
%TO.N,Net-(J2-Pad28)*%
X34018000Y-35108000D03*
%TO.P,J2,29*%
%TO.N,Net-(J2-Pad29)*%
X43198000Y-34108000D03*
%TO.P,J2,30*%
%TO.N,Net-(J2-Pad30)*%
X34018000Y-34108000D03*
%TO.P,J2,31*%
%TO.N,Net-(J2-Pad31)*%
X43198000Y-33108000D03*
%TO.P,J2,32*%
%TO.N,Net-(J2-Pad32)*%
X34018000Y-33108000D03*
%TO.P,J2,33*%
%TO.N,Net-(J2-Pad33)*%
X43198000Y-32108000D03*
%TO.P,J2,34*%
%TO.N,Net-(J2-Pad34)*%
X34018000Y-32108000D03*
%TO.P,J2,35*%
%TO.N,Net-(J2-Pad35)*%
X43198000Y-31108000D03*
%TO.P,J2,36*%
%TO.N,Net-(J2-Pad36)*%
X34018000Y-31108000D03*
%TO.P,J2,37*%
%TO.N,Net-(J2-Pad37)*%
X43198000Y-30108000D03*
%TO.P,J2,38*%
%TO.N,Net-(J2-Pad38)*%
X34018000Y-30108000D03*
%TO.P,J2,39*%
%TO.N,Net-(J2-Pad39)*%
X43198000Y-29108000D03*
%TO.P,J2,40*%
%TO.N,GND*%
X34018000Y-29108000D03*
%TD*%
D14*
%TO.N,/KTDI*%
X32512000Y-43688000D03*
%TO.N,/KTDO*%
X32258000Y-40894000D03*
%TO.N,/KTMS*%
X36322000Y-45212000D03*
%TO.N,/KVREF*%
X36322000Y-48006000D03*
%TO.N,/LTCK*%
X41402000Y-46482000D03*
%TD*%
D15*
%TO.N,/KTDI*%
X32932000Y-44108000D02*
X34018000Y-44108000D01*
X32512000Y-43688000D02*
X32932000Y-44108000D01*
%TO.N,/KTDO*%
X31786999Y-41365001D02*
X31786999Y-44036001D01*
X32258000Y-40894000D02*
X31786999Y-41365001D01*
X31786999Y-44036001D02*
X32858998Y-45108000D01*
X32858998Y-45108000D02*
X34018000Y-45108000D01*
%TO.N,/KTCK*%
X33138000Y-47108000D02*
X34018000Y-47108000D01*
X28924000Y-36958000D02*
X30862000Y-38896000D01*
X30862000Y-38896000D02*
X30862000Y-44832000D01*
X30862000Y-44832000D02*
X33138000Y-47108000D01*
%TO.N,/KTMS*%
X35426000Y-46108000D02*
X36322000Y-45212000D01*
X34018000Y-46108000D02*
X35426000Y-46108000D01*
%TO.N,/KVREF*%
X36220000Y-48108000D02*
X36322000Y-48006000D01*
X34018000Y-48108000D02*
X36220000Y-48108000D01*
%TO.N,/LTDI*%
X48350000Y-36950000D02*
X45212000Y-40088000D01*
X44078000Y-44108000D02*
X43198000Y-44108000D01*
X45212000Y-42974000D02*
X44078000Y-44108000D01*
X45212000Y-40088000D02*
X45212000Y-42974000D01*
%TO.N,/LTDO*%
X48350000Y-38950000D02*
X46228000Y-41072000D01*
X44078000Y-45108000D02*
X43198000Y-45108000D01*
X46228000Y-42958000D02*
X44078000Y-45108000D01*
X46228000Y-41072000D02*
X46228000Y-42958000D01*
%TO.N,/LTCK*%
X42028000Y-47108000D02*
X43198000Y-47108000D01*
X41402000Y-46482000D02*
X42028000Y-47108000D01*
%TO.N,/LTMS*%
X45192000Y-46108000D02*
X43198000Y-46108000D01*
X48350000Y-42950000D02*
X45192000Y-46108000D01*
%TO.N,/LVREF*%
X45192000Y-48108000D02*
X43198000Y-48108000D01*
X48350000Y-44950000D02*
X45192000Y-48108000D01*
%TD*%
%TO.N,GND*%
G36*
X51775001Y-54926000D02*
G01*
X25489000Y-54926000D01*
X25489000Y-52073329D01*
X36733000Y-52073329D01*
X36733000Y-52442671D01*
X36805056Y-52804917D01*
X36946397Y-53146145D01*
X37151593Y-53453243D01*
X37412757Y-53714407D01*
X37719855Y-53919603D01*
X38061083Y-54060944D01*
X38423329Y-54133000D01*
X38792671Y-54133000D01*
X39154917Y-54060944D01*
X39496145Y-53919603D01*
X39803243Y-53714407D01*
X40064407Y-53453243D01*
X40269603Y-53146145D01*
X40410944Y-52804917D01*
X40483000Y-52442671D01*
X40483000Y-52073329D01*
X40410944Y-51711083D01*
X40269603Y-51369855D01*
X40064407Y-51062757D01*
X39803243Y-50801593D01*
X39496145Y-50596397D01*
X39154917Y-50455056D01*
X38792671Y-50383000D01*
X38423329Y-50383000D01*
X38061083Y-50455056D01*
X37719855Y-50596397D01*
X37412757Y-50801593D01*
X37151593Y-51062757D01*
X36946397Y-51369855D01*
X36805056Y-51711083D01*
X36733000Y-52073329D01*
X25489000Y-52073329D01*
X25489000Y-45861583D01*
X26202851Y-45861583D01*
X26259549Y-46092005D01*
X26493550Y-46199844D01*
X26744093Y-46259958D01*
X27001550Y-46270039D01*
X27256026Y-46229700D01*
X27497742Y-46140489D01*
X27588451Y-46092005D01*
X27645149Y-45861583D01*
X26924000Y-45140434D01*
X26202851Y-45861583D01*
X25489000Y-45861583D01*
X25489000Y-45035550D01*
X25611961Y-45035550D01*
X25652300Y-45290026D01*
X25741511Y-45531742D01*
X25789995Y-45622451D01*
X26020417Y-45679149D01*
X26741566Y-44958000D01*
X26020417Y-44236851D01*
X25789995Y-44293549D01*
X25682156Y-44527550D01*
X25622042Y-44778093D01*
X25611961Y-45035550D01*
X25489000Y-45035550D01*
X25489000Y-43289030D01*
X25658582Y-43289030D01*
X25687928Y-43385789D01*
X25795136Y-43618715D01*
X25945726Y-43826250D01*
X26133911Y-44000419D01*
X26205351Y-44044257D01*
X26202851Y-44054417D01*
X26924000Y-44775566D01*
X27645149Y-44054417D01*
X27642649Y-44044257D01*
X27714089Y-44000419D01*
X27902274Y-43826250D01*
X27923929Y-43796407D01*
X28085522Y-43958000D01*
X27914224Y-44129298D01*
X27840273Y-44239974D01*
X27827583Y-44236851D01*
X27106434Y-44958000D01*
X27827583Y-45679149D01*
X27840273Y-45676026D01*
X27914224Y-45786702D01*
X28095298Y-45967776D01*
X28308219Y-46110045D01*
X28544804Y-46208042D01*
X28795961Y-46258000D01*
X29052039Y-46258000D01*
X29303196Y-46208042D01*
X29539781Y-46110045D01*
X29752702Y-45967776D01*
X29933776Y-45786702D01*
X30076045Y-45573781D01*
X30174042Y-45337196D01*
X30203218Y-45190518D01*
X30235382Y-45250693D01*
X30267662Y-45290026D01*
X30305624Y-45336283D01*
X30305627Y-45336286D01*
X30329106Y-45364895D01*
X30357715Y-45388374D01*
X32581626Y-47612286D01*
X32605105Y-47640895D01*
X32719307Y-47734619D01*
X32764340Y-47758690D01*
X32759976Y-47803000D01*
X32759976Y-48413000D01*
X32772043Y-48535521D01*
X32807781Y-48653334D01*
X32865817Y-48761911D01*
X32943920Y-48857080D01*
X33039089Y-48935183D01*
X33147666Y-48993219D01*
X33265479Y-49028957D01*
X33388000Y-49041024D01*
X34648000Y-49041024D01*
X34770521Y-49028957D01*
X34888334Y-48993219D01*
X34996911Y-48935183D01*
X35090959Y-48858000D01*
X35752155Y-48858000D01*
X35836480Y-48914344D01*
X36023018Y-48991610D01*
X36221046Y-49031000D01*
X36422954Y-49031000D01*
X36620982Y-48991610D01*
X36807520Y-48914344D01*
X36975400Y-48802170D01*
X37118170Y-48659400D01*
X37230344Y-48491520D01*
X37307610Y-48304982D01*
X37347000Y-48106954D01*
X37347000Y-47987840D01*
X37388000Y-47987840D01*
X37388000Y-48228160D01*
X37434884Y-48463861D01*
X37526850Y-48685887D01*
X37660364Y-48885705D01*
X37830295Y-49055636D01*
X38030113Y-49189150D01*
X38252139Y-49281116D01*
X38487840Y-49328000D01*
X38728160Y-49328000D01*
X38963861Y-49281116D01*
X39185887Y-49189150D01*
X39385705Y-49055636D01*
X39555636Y-48885705D01*
X39689150Y-48685887D01*
X39781116Y-48463861D01*
X39828000Y-48228160D01*
X39828000Y-47987840D01*
X39781116Y-47752139D01*
X39689150Y-47530113D01*
X39555636Y-47330295D01*
X39385705Y-47160364D01*
X39185887Y-47026850D01*
X38963861Y-46934884D01*
X38728160Y-46888000D01*
X38487840Y-46888000D01*
X38252139Y-46934884D01*
X38030113Y-47026850D01*
X37830295Y-47160364D01*
X37660364Y-47330295D01*
X37526850Y-47530113D01*
X37434884Y-47752139D01*
X37388000Y-47987840D01*
X37347000Y-47987840D01*
X37347000Y-47905046D01*
X37307610Y-47707018D01*
X37230344Y-47520480D01*
X37118170Y-47352600D01*
X36975400Y-47209830D01*
X36807520Y-47097656D01*
X36620982Y-47020390D01*
X36422954Y-46981000D01*
X36221046Y-46981000D01*
X36023018Y-47020390D01*
X35836480Y-47097656D01*
X35668600Y-47209830D01*
X35525830Y-47352600D01*
X35522222Y-47358000D01*
X35276024Y-47358000D01*
X35276024Y-46858000D01*
X35389173Y-46858000D01*
X35426000Y-46861627D01*
X35462827Y-46858000D01*
X35462835Y-46858000D01*
X35573026Y-46847147D01*
X35714401Y-46804261D01*
X35844693Y-46734619D01*
X35958895Y-46640895D01*
X35982378Y-46612281D01*
X36213613Y-46381046D01*
X40377000Y-46381046D01*
X40377000Y-46582954D01*
X40416390Y-46780982D01*
X40493656Y-46967520D01*
X40605830Y-47135400D01*
X40748600Y-47278170D01*
X40916480Y-47390344D01*
X41103018Y-47467610D01*
X41301046Y-47507000D01*
X41366340Y-47507000D01*
X41471626Y-47612286D01*
X41495105Y-47640895D01*
X41523714Y-47664374D01*
X41523716Y-47664376D01*
X41554096Y-47689308D01*
X41609307Y-47734619D01*
X41739599Y-47804261D01*
X41880974Y-47847147D01*
X41939976Y-47852958D01*
X41939976Y-48413000D01*
X41952043Y-48535521D01*
X41987781Y-48653334D01*
X42045817Y-48761911D01*
X42123920Y-48857080D01*
X42219089Y-48935183D01*
X42327666Y-48993219D01*
X42445479Y-49028957D01*
X42568000Y-49041024D01*
X43828000Y-49041024D01*
X43950521Y-49028957D01*
X44068334Y-48993219D01*
X44176911Y-48935183D01*
X44270959Y-48858000D01*
X45155173Y-48858000D01*
X45192000Y-48861627D01*
X45228827Y-48858000D01*
X45228835Y-48858000D01*
X45339026Y-48847147D01*
X45480401Y-48804261D01*
X45610693Y-48734619D01*
X45724895Y-48640895D01*
X45748378Y-48612281D01*
X48129126Y-46231534D01*
X48221961Y-46250000D01*
X48478039Y-46250000D01*
X48729196Y-46200042D01*
X48965781Y-46102045D01*
X49147808Y-45980419D01*
X49225236Y-46074764D01*
X49321622Y-46153867D01*
X49431589Y-46212646D01*
X49550910Y-46248841D01*
X49675000Y-46261063D01*
X50062750Y-46258000D01*
X50221000Y-46099750D01*
X50221000Y-45079000D01*
X50479000Y-45079000D01*
X50479000Y-46099750D01*
X50637250Y-46258000D01*
X51025000Y-46261063D01*
X51149090Y-46248841D01*
X51268411Y-46212646D01*
X51378378Y-46153867D01*
X51474764Y-46074764D01*
X51553867Y-45978378D01*
X51612646Y-45868411D01*
X51648841Y-45749090D01*
X51661063Y-45625000D01*
X51658000Y-45237250D01*
X51499750Y-45079000D01*
X50479000Y-45079000D01*
X50221000Y-45079000D01*
X50201000Y-45079000D01*
X50201000Y-44821000D01*
X50221000Y-44821000D01*
X50221000Y-43079000D01*
X50479000Y-43079000D01*
X50479000Y-44821000D01*
X51499750Y-44821000D01*
X51658000Y-44662750D01*
X51661063Y-44275000D01*
X51648841Y-44150910D01*
X51612646Y-44031589D01*
X51553867Y-43921622D01*
X51474764Y-43825236D01*
X51379773Y-43747277D01*
X51478864Y-43610715D01*
X51586072Y-43377789D01*
X51615418Y-43281030D01*
X51492490Y-43079000D01*
X50479000Y-43079000D01*
X50221000Y-43079000D01*
X50201000Y-43079000D01*
X50201000Y-42821000D01*
X50221000Y-42821000D01*
X50221000Y-41079000D01*
X50479000Y-41079000D01*
X50479000Y-42821000D01*
X51492490Y-42821000D01*
X51615418Y-42618970D01*
X51586072Y-42522211D01*
X51478864Y-42289285D01*
X51328274Y-42081750D01*
X51185922Y-41950000D01*
X51328274Y-41818250D01*
X51478864Y-41610715D01*
X51586072Y-41377789D01*
X51615418Y-41281030D01*
X51492490Y-41079000D01*
X50479000Y-41079000D01*
X50221000Y-41079000D01*
X50201000Y-41079000D01*
X50201000Y-40821000D01*
X50221000Y-40821000D01*
X50221000Y-39079000D01*
X50479000Y-39079000D01*
X50479000Y-40821000D01*
X51492490Y-40821000D01*
X51615418Y-40618970D01*
X51586072Y-40522211D01*
X51478864Y-40289285D01*
X51328274Y-40081750D01*
X51185922Y-39950000D01*
X51328274Y-39818250D01*
X51478864Y-39610715D01*
X51586072Y-39377789D01*
X51615418Y-39281030D01*
X51492490Y-39079000D01*
X50479000Y-39079000D01*
X50221000Y-39079000D01*
X50201000Y-39079000D01*
X50201000Y-38821000D01*
X50221000Y-38821000D01*
X50221000Y-37079000D01*
X50479000Y-37079000D01*
X50479000Y-38821000D01*
X51492490Y-38821000D01*
X51615418Y-38618970D01*
X51586072Y-38522211D01*
X51478864Y-38289285D01*
X51328274Y-38081750D01*
X51185922Y-37950000D01*
X51328274Y-37818250D01*
X51478864Y-37610715D01*
X51586072Y-37377789D01*
X51615418Y-37281030D01*
X51492490Y-37079000D01*
X50479000Y-37079000D01*
X50221000Y-37079000D01*
X50201000Y-37079000D01*
X50201000Y-36821000D01*
X50221000Y-36821000D01*
X50221000Y-35079000D01*
X50479000Y-35079000D01*
X50479000Y-36821000D01*
X51492490Y-36821000D01*
X51615418Y-36618970D01*
X51586072Y-36522211D01*
X51478864Y-36289285D01*
X51328274Y-36081750D01*
X51185922Y-35950000D01*
X51328274Y-35818250D01*
X51478864Y-35610715D01*
X51586072Y-35377789D01*
X51615418Y-35281030D01*
X51492490Y-35079000D01*
X50479000Y-35079000D01*
X50221000Y-35079000D01*
X50201000Y-35079000D01*
X50201000Y-34821000D01*
X50221000Y-34821000D01*
X50221000Y-34801000D01*
X50479000Y-34801000D01*
X50479000Y-34821000D01*
X51492490Y-34821000D01*
X51615418Y-34618970D01*
X51586072Y-34522211D01*
X51478864Y-34289285D01*
X51328274Y-34081750D01*
X51140089Y-33907581D01*
X51068649Y-33863743D01*
X51071149Y-33853583D01*
X50350000Y-33132434D01*
X49628851Y-33853583D01*
X49631351Y-33863743D01*
X49559911Y-33907581D01*
X49371726Y-34081750D01*
X49350071Y-34111593D01*
X49188478Y-33950000D01*
X49359776Y-33778702D01*
X49433727Y-33668026D01*
X49446417Y-33671149D01*
X50167566Y-32950000D01*
X50532434Y-32950000D01*
X51253583Y-33671149D01*
X51484005Y-33614451D01*
X51591844Y-33380450D01*
X51651958Y-33129907D01*
X51662039Y-32872450D01*
X51621700Y-32617974D01*
X51532489Y-32376258D01*
X51484005Y-32285549D01*
X51253583Y-32228851D01*
X50532434Y-32950000D01*
X50167566Y-32950000D01*
X49446417Y-32228851D01*
X49433727Y-32231974D01*
X49359776Y-32121298D01*
X49284895Y-32046417D01*
X49628851Y-32046417D01*
X50350000Y-32767566D01*
X51071149Y-32046417D01*
X51014451Y-31815995D01*
X50780450Y-31708156D01*
X50529907Y-31648042D01*
X50272450Y-31637961D01*
X50017974Y-31678300D01*
X49776258Y-31767511D01*
X49685549Y-31815995D01*
X49628851Y-32046417D01*
X49284895Y-32046417D01*
X49178702Y-31940224D01*
X48965781Y-31797955D01*
X48729196Y-31699958D01*
X48478039Y-31650000D01*
X48221961Y-31650000D01*
X47970804Y-31699958D01*
X47734219Y-31797955D01*
X47521298Y-31940224D01*
X47340224Y-32121298D01*
X47197955Y-32334219D01*
X47099958Y-32570804D01*
X47050000Y-32821961D01*
X47050000Y-33078039D01*
X47099958Y-33329196D01*
X47197955Y-33565781D01*
X47340224Y-33778702D01*
X47511522Y-33950000D01*
X47340224Y-34121298D01*
X47197955Y-34334219D01*
X47099958Y-34570804D01*
X47050000Y-34821961D01*
X47050000Y-35078039D01*
X47099958Y-35329196D01*
X47197955Y-35565781D01*
X47340224Y-35778702D01*
X47511522Y-35950000D01*
X47340224Y-36121298D01*
X47197955Y-36334219D01*
X47099958Y-36570804D01*
X47050000Y-36821961D01*
X47050000Y-37078039D01*
X47068466Y-37170874D01*
X44707720Y-39531621D01*
X44679105Y-39555105D01*
X44585381Y-39669308D01*
X44515739Y-39799600D01*
X44472853Y-39940975D01*
X44462000Y-40051166D01*
X44462000Y-40051173D01*
X44458373Y-40088000D01*
X44462000Y-40124828D01*
X44462001Y-42663339D01*
X44444038Y-42681302D01*
X44443957Y-42680479D01*
X44421971Y-42608000D01*
X44443957Y-42535521D01*
X44456024Y-42413000D01*
X44456024Y-41803000D01*
X44443957Y-41680479D01*
X44421971Y-41608000D01*
X44443957Y-41535521D01*
X44456024Y-41413000D01*
X44456024Y-40803000D01*
X44443957Y-40680479D01*
X44421971Y-40608000D01*
X44443957Y-40535521D01*
X44456024Y-40413000D01*
X44456024Y-39803000D01*
X44443957Y-39680479D01*
X44421971Y-39608000D01*
X44443957Y-39535521D01*
X44456024Y-39413000D01*
X44456024Y-38803000D01*
X44443957Y-38680479D01*
X44421971Y-38608000D01*
X44443957Y-38535521D01*
X44456024Y-38413000D01*
X44456024Y-37803000D01*
X44443957Y-37680479D01*
X44421971Y-37608000D01*
X44443957Y-37535521D01*
X44456024Y-37413000D01*
X44456024Y-36803000D01*
X44443957Y-36680479D01*
X44421971Y-36608000D01*
X44443957Y-36535521D01*
X44456024Y-36413000D01*
X44456024Y-35803000D01*
X44443957Y-35680479D01*
X44421971Y-35608000D01*
X44443957Y-35535521D01*
X44456024Y-35413000D01*
X44456024Y-34803000D01*
X44443957Y-34680479D01*
X44421971Y-34608000D01*
X44443957Y-34535521D01*
X44456024Y-34413000D01*
X44456024Y-33803000D01*
X44443957Y-33680479D01*
X44421971Y-33608000D01*
X44443957Y-33535521D01*
X44456024Y-33413000D01*
X44456024Y-32803000D01*
X44443957Y-32680479D01*
X44421971Y-32608000D01*
X44443957Y-32535521D01*
X44456024Y-32413000D01*
X44456024Y-31803000D01*
X44443957Y-31680479D01*
X44421971Y-31608000D01*
X44443957Y-31535521D01*
X44456024Y-31413000D01*
X44456024Y-30803000D01*
X44443957Y-30680479D01*
X44421971Y-30608000D01*
X44443957Y-30535521D01*
X44456024Y-30413000D01*
X44456024Y-29803000D01*
X44443957Y-29680479D01*
X44421971Y-29608000D01*
X44443957Y-29535521D01*
X44456024Y-29413000D01*
X44456024Y-28803000D01*
X44443957Y-28680479D01*
X44408219Y-28562666D01*
X44350183Y-28454089D01*
X44272080Y-28358920D01*
X44176911Y-28280817D01*
X44068334Y-28222781D01*
X43950521Y-28187043D01*
X43828000Y-28174976D01*
X42568000Y-28174976D01*
X42445479Y-28187043D01*
X42327666Y-28222781D01*
X42219089Y-28280817D01*
X42123920Y-28358920D01*
X42045817Y-28454089D01*
X41987781Y-28562666D01*
X41952043Y-28680479D01*
X41939976Y-28803000D01*
X41939976Y-29413000D01*
X41952043Y-29535521D01*
X41974029Y-29608000D01*
X41952043Y-29680479D01*
X41939976Y-29803000D01*
X41939976Y-30413000D01*
X41952043Y-30535521D01*
X41974029Y-30608000D01*
X41952043Y-30680479D01*
X41939976Y-30803000D01*
X41939976Y-31413000D01*
X41952043Y-31535521D01*
X41974029Y-31608000D01*
X41952043Y-31680479D01*
X41939976Y-31803000D01*
X41939976Y-32413000D01*
X41952043Y-32535521D01*
X41974029Y-32608000D01*
X41952043Y-32680479D01*
X41939976Y-32803000D01*
X41939976Y-33413000D01*
X41952043Y-33535521D01*
X41974029Y-33608000D01*
X41952043Y-33680479D01*
X41939976Y-33803000D01*
X41939976Y-34413000D01*
X41952043Y-34535521D01*
X41974029Y-34608000D01*
X41952043Y-34680479D01*
X41939976Y-34803000D01*
X41939976Y-35413000D01*
X41952043Y-35535521D01*
X41974029Y-35608000D01*
X41952043Y-35680479D01*
X41939976Y-35803000D01*
X41939976Y-36413000D01*
X41952043Y-36535521D01*
X41974029Y-36608000D01*
X41952043Y-36680479D01*
X41939976Y-36803000D01*
X41939976Y-37413000D01*
X41952043Y-37535521D01*
X41974029Y-37608000D01*
X41952043Y-37680479D01*
X41939976Y-37803000D01*
X41939976Y-38413000D01*
X41952043Y-38535521D01*
X41974029Y-38608000D01*
X41952043Y-38680479D01*
X41939976Y-38803000D01*
X41939976Y-39413000D01*
X41952043Y-39535521D01*
X41974029Y-39608000D01*
X41952043Y-39680479D01*
X41939976Y-39803000D01*
X41939976Y-40413000D01*
X41952043Y-40535521D01*
X41974029Y-40608000D01*
X41952043Y-40680479D01*
X41939976Y-40803000D01*
X41939976Y-41413000D01*
X41952043Y-41535521D01*
X41974029Y-41608000D01*
X41952043Y-41680479D01*
X41939976Y-41803000D01*
X41939976Y-42413000D01*
X41952043Y-42535521D01*
X41974029Y-42608000D01*
X41952043Y-42680479D01*
X41939976Y-42803000D01*
X41939976Y-43413000D01*
X41952043Y-43535521D01*
X41974029Y-43608000D01*
X41952043Y-43680479D01*
X41939976Y-43803000D01*
X41939976Y-44413000D01*
X41952043Y-44535521D01*
X41974029Y-44608000D01*
X41952043Y-44680479D01*
X41939976Y-44803000D01*
X41939976Y-45413000D01*
X41952043Y-45535521D01*
X41974029Y-45608000D01*
X41968112Y-45627506D01*
X41887520Y-45573656D01*
X41700982Y-45496390D01*
X41502954Y-45457000D01*
X41301046Y-45457000D01*
X41103018Y-45496390D01*
X40916480Y-45573656D01*
X40748600Y-45685830D01*
X40605830Y-45828600D01*
X40493656Y-45996480D01*
X40416390Y-46183018D01*
X40377000Y-46381046D01*
X36213613Y-46381046D01*
X36357660Y-46237000D01*
X36422954Y-46237000D01*
X36620982Y-46197610D01*
X36807520Y-46120344D01*
X36975400Y-46008170D01*
X37118170Y-45865400D01*
X37230344Y-45697520D01*
X37307610Y-45510982D01*
X37347000Y-45312954D01*
X37347000Y-45111046D01*
X37307610Y-44913018D01*
X37230344Y-44726480D01*
X37118170Y-44558600D01*
X36975400Y-44415830D01*
X36807520Y-44303656D01*
X36620982Y-44226390D01*
X36422954Y-44187000D01*
X36221046Y-44187000D01*
X36023018Y-44226390D01*
X35836480Y-44303656D01*
X35668600Y-44415830D01*
X35525830Y-44558600D01*
X35413656Y-44726480D01*
X35336390Y-44913018D01*
X35297000Y-45111046D01*
X35297000Y-45176340D01*
X35276024Y-45197316D01*
X35276024Y-44803000D01*
X35263957Y-44680479D01*
X35241971Y-44608000D01*
X35263957Y-44535521D01*
X35276024Y-44413000D01*
X35276024Y-43803000D01*
X35263957Y-43680479D01*
X35246151Y-43621780D01*
X35271841Y-43537090D01*
X35284063Y-43413000D01*
X35281000Y-43395250D01*
X35122750Y-43237000D01*
X34914936Y-43237000D01*
X34888334Y-43222781D01*
X34770521Y-43187043D01*
X34648000Y-43174976D01*
X33869000Y-43174976D01*
X33869000Y-43041024D01*
X34648000Y-43041024D01*
X34770521Y-43028957D01*
X34888334Y-42993219D01*
X34914936Y-42979000D01*
X35122750Y-42979000D01*
X35281000Y-42820750D01*
X35284063Y-42803000D01*
X35271841Y-42678910D01*
X35246151Y-42594220D01*
X35263957Y-42535521D01*
X35276024Y-42413000D01*
X35276024Y-41803000D01*
X35263957Y-41680479D01*
X35241971Y-41608000D01*
X35263957Y-41535521D01*
X35276024Y-41413000D01*
X35276024Y-40803000D01*
X35263957Y-40680479D01*
X35241971Y-40608000D01*
X35263957Y-40535521D01*
X35276024Y-40413000D01*
X35276024Y-39803000D01*
X35263957Y-39680479D01*
X35241971Y-39608000D01*
X35263957Y-39535521D01*
X35276024Y-39413000D01*
X35276024Y-38803000D01*
X35263957Y-38680479D01*
X35241971Y-38608000D01*
X35263957Y-38535521D01*
X35276024Y-38413000D01*
X35276024Y-37803000D01*
X35263957Y-37680479D01*
X35241971Y-37608000D01*
X35263957Y-37535521D01*
X35276024Y-37413000D01*
X35276024Y-36803000D01*
X35263957Y-36680479D01*
X35241971Y-36608000D01*
X35263957Y-36535521D01*
X35276024Y-36413000D01*
X35276024Y-35803000D01*
X35263957Y-35680479D01*
X35241971Y-35608000D01*
X35263957Y-35535521D01*
X35276024Y-35413000D01*
X35276024Y-34803000D01*
X35263957Y-34680479D01*
X35241971Y-34608000D01*
X35263957Y-34535521D01*
X35276024Y-34413000D01*
X35276024Y-33803000D01*
X35263957Y-33680479D01*
X35241971Y-33608000D01*
X35263957Y-33535521D01*
X35276024Y-33413000D01*
X35276024Y-32803000D01*
X35263957Y-32680479D01*
X35241971Y-32608000D01*
X35263957Y-32535521D01*
X35276024Y-32413000D01*
X35276024Y-31803000D01*
X35263957Y-31680479D01*
X35241971Y-31608000D01*
X35263957Y-31535521D01*
X35276024Y-31413000D01*
X35276024Y-30803000D01*
X35263957Y-30680479D01*
X35241971Y-30608000D01*
X35263957Y-30535521D01*
X35276024Y-30413000D01*
X35276024Y-29803000D01*
X35263957Y-29680479D01*
X35246151Y-29621780D01*
X35271841Y-29537090D01*
X35284063Y-29413000D01*
X35281000Y-29395250D01*
X35122750Y-29237000D01*
X34914936Y-29237000D01*
X34888334Y-29222781D01*
X34770521Y-29187043D01*
X34648000Y-29174976D01*
X33388000Y-29174976D01*
X33265479Y-29187043D01*
X33147666Y-29222781D01*
X33121064Y-29237000D01*
X32913250Y-29237000D01*
X32755000Y-29395250D01*
X32751937Y-29413000D01*
X32764159Y-29537090D01*
X32789849Y-29621780D01*
X32772043Y-29680479D01*
X32759976Y-29803000D01*
X32759976Y-30413000D01*
X32772043Y-30535521D01*
X32794029Y-30608000D01*
X32772043Y-30680479D01*
X32759976Y-30803000D01*
X32759976Y-31413000D01*
X32772043Y-31535521D01*
X32794029Y-31608000D01*
X32772043Y-31680479D01*
X32759976Y-31803000D01*
X32759976Y-32413000D01*
X32772043Y-32535521D01*
X32794029Y-32608000D01*
X32772043Y-32680479D01*
X32759976Y-32803000D01*
X32759976Y-33413000D01*
X32772043Y-33535521D01*
X32794029Y-33608000D01*
X32772043Y-33680479D01*
X32759976Y-33803000D01*
X32759976Y-34413000D01*
X32772043Y-34535521D01*
X32794029Y-34608000D01*
X32772043Y-34680479D01*
X32759976Y-34803000D01*
X32759976Y-35413000D01*
X32772043Y-35535521D01*
X32794029Y-35608000D01*
X32772043Y-35680479D01*
X32759976Y-35803000D01*
X32759976Y-36413000D01*
X32772043Y-36535521D01*
X32794029Y-36608000D01*
X32772043Y-36680479D01*
X32759976Y-36803000D01*
X32759976Y-37413000D01*
X32772043Y-37535521D01*
X32794029Y-37608000D01*
X32772043Y-37680479D01*
X32759976Y-37803000D01*
X32759976Y-38413000D01*
X32772043Y-38535521D01*
X32794029Y-38608000D01*
X32772043Y-38680479D01*
X32759976Y-38803000D01*
X32759976Y-39413000D01*
X32772043Y-39535521D01*
X32794029Y-39608000D01*
X32772043Y-39680479D01*
X32759976Y-39803000D01*
X32759976Y-39996652D01*
X32743520Y-39985656D01*
X32556982Y-39908390D01*
X32358954Y-39869000D01*
X32157046Y-39869000D01*
X31959018Y-39908390D01*
X31772480Y-39985656D01*
X31612000Y-40092885D01*
X31612000Y-38932827D01*
X31615627Y-38896000D01*
X31612000Y-38859172D01*
X31612000Y-38859165D01*
X31601147Y-38748974D01*
X31558261Y-38607599D01*
X31488619Y-38477307D01*
X31394895Y-38363105D01*
X31366287Y-38339627D01*
X30205534Y-37178875D01*
X30224000Y-37086039D01*
X30224000Y-36829961D01*
X30174042Y-36578804D01*
X30076045Y-36342219D01*
X29933776Y-36129298D01*
X29762478Y-35958000D01*
X29933776Y-35786702D01*
X30076045Y-35573781D01*
X30174042Y-35337196D01*
X30224000Y-35086039D01*
X30224000Y-34829961D01*
X30174042Y-34578804D01*
X30076045Y-34342219D01*
X29933776Y-34129298D01*
X29762478Y-33958000D01*
X29933776Y-33786702D01*
X30076045Y-33573781D01*
X30174042Y-33337196D01*
X30224000Y-33086039D01*
X30224000Y-32829961D01*
X30174042Y-32578804D01*
X30076045Y-32342219D01*
X29933776Y-32129298D01*
X29752702Y-31948224D01*
X29539781Y-31805955D01*
X29303196Y-31707958D01*
X29052039Y-31658000D01*
X28795961Y-31658000D01*
X28544804Y-31707958D01*
X28308219Y-31805955D01*
X28126192Y-31927581D01*
X28048764Y-31833236D01*
X27952378Y-31754133D01*
X27842411Y-31695354D01*
X27723090Y-31659159D01*
X27599000Y-31646937D01*
X27211250Y-31650000D01*
X27053000Y-31808250D01*
X27053000Y-32829000D01*
X27073000Y-32829000D01*
X27073000Y-33087000D01*
X27053000Y-33087000D01*
X27053000Y-34829000D01*
X27073000Y-34829000D01*
X27073000Y-35087000D01*
X27053000Y-35087000D01*
X27053000Y-36829000D01*
X27073000Y-36829000D01*
X27073000Y-37087000D01*
X27053000Y-37087000D01*
X27053000Y-38829000D01*
X27073000Y-38829000D01*
X27073000Y-39087000D01*
X27053000Y-39087000D01*
X27053000Y-40829000D01*
X27073000Y-40829000D01*
X27073000Y-41087000D01*
X27053000Y-41087000D01*
X27053000Y-42829000D01*
X27073000Y-42829000D01*
X27073000Y-43087000D01*
X27053000Y-43087000D01*
X27053000Y-43107000D01*
X26795000Y-43107000D01*
X26795000Y-43087000D01*
X25781510Y-43087000D01*
X25658582Y-43289030D01*
X25489000Y-43289030D01*
X25489000Y-41289030D01*
X25658582Y-41289030D01*
X25687928Y-41385789D01*
X25795136Y-41618715D01*
X25945726Y-41826250D01*
X26088078Y-41958000D01*
X25945726Y-42089750D01*
X25795136Y-42297285D01*
X25687928Y-42530211D01*
X25658582Y-42626970D01*
X25781510Y-42829000D01*
X26795000Y-42829000D01*
X26795000Y-41087000D01*
X25781510Y-41087000D01*
X25658582Y-41289030D01*
X25489000Y-41289030D01*
X25489000Y-39289030D01*
X25658582Y-39289030D01*
X25687928Y-39385789D01*
X25795136Y-39618715D01*
X25945726Y-39826250D01*
X26088078Y-39958000D01*
X25945726Y-40089750D01*
X25795136Y-40297285D01*
X25687928Y-40530211D01*
X25658582Y-40626970D01*
X25781510Y-40829000D01*
X26795000Y-40829000D01*
X26795000Y-39087000D01*
X25781510Y-39087000D01*
X25658582Y-39289030D01*
X25489000Y-39289030D01*
X25489000Y-37289030D01*
X25658582Y-37289030D01*
X25687928Y-37385789D01*
X25795136Y-37618715D01*
X25945726Y-37826250D01*
X26088078Y-37958000D01*
X25945726Y-38089750D01*
X25795136Y-38297285D01*
X25687928Y-38530211D01*
X25658582Y-38626970D01*
X25781510Y-38829000D01*
X26795000Y-38829000D01*
X26795000Y-37087000D01*
X25781510Y-37087000D01*
X25658582Y-37289030D01*
X25489000Y-37289030D01*
X25489000Y-35289030D01*
X25658582Y-35289030D01*
X25687928Y-35385789D01*
X25795136Y-35618715D01*
X25945726Y-35826250D01*
X26088078Y-35958000D01*
X25945726Y-36089750D01*
X25795136Y-36297285D01*
X25687928Y-36530211D01*
X25658582Y-36626970D01*
X25781510Y-36829000D01*
X26795000Y-36829000D01*
X26795000Y-35087000D01*
X25781510Y-35087000D01*
X25658582Y-35289030D01*
X25489000Y-35289030D01*
X25489000Y-33633000D01*
X25612937Y-33633000D01*
X25625159Y-33757090D01*
X25661354Y-33876411D01*
X25720133Y-33986378D01*
X25799236Y-34082764D01*
X25894227Y-34160723D01*
X25795136Y-34297285D01*
X25687928Y-34530211D01*
X25658582Y-34626970D01*
X25781510Y-34829000D01*
X26795000Y-34829000D01*
X26795000Y-33087000D01*
X25774250Y-33087000D01*
X25616000Y-33245250D01*
X25612937Y-33633000D01*
X25489000Y-33633000D01*
X25489000Y-32283000D01*
X25612937Y-32283000D01*
X25616000Y-32670750D01*
X25774250Y-32829000D01*
X26795000Y-32829000D01*
X26795000Y-31808250D01*
X26636750Y-31650000D01*
X26249000Y-31646937D01*
X26124910Y-31659159D01*
X26005589Y-31695354D01*
X25895622Y-31754133D01*
X25799236Y-31833236D01*
X25720133Y-31929622D01*
X25661354Y-32039589D01*
X25625159Y-32158910D01*
X25612937Y-32283000D01*
X25489000Y-32283000D01*
X25489000Y-28987840D01*
X37388000Y-28987840D01*
X37388000Y-29228160D01*
X37434884Y-29463861D01*
X37526850Y-29685887D01*
X37660364Y-29885705D01*
X37830295Y-30055636D01*
X38030113Y-30189150D01*
X38252139Y-30281116D01*
X38487840Y-30328000D01*
X38728160Y-30328000D01*
X38963861Y-30281116D01*
X39185887Y-30189150D01*
X39385705Y-30055636D01*
X39555636Y-29885705D01*
X39689150Y-29685887D01*
X39781116Y-29463861D01*
X39828000Y-29228160D01*
X39828000Y-28987840D01*
X39781116Y-28752139D01*
X39689150Y-28530113D01*
X39555636Y-28330295D01*
X39385705Y-28160364D01*
X39185887Y-28026850D01*
X38963861Y-27934884D01*
X38728160Y-27888000D01*
X38487840Y-27888000D01*
X38252139Y-27934884D01*
X38030113Y-28026850D01*
X37830295Y-28160364D01*
X37660364Y-28330295D01*
X37526850Y-28530113D01*
X37434884Y-28752139D01*
X37388000Y-28987840D01*
X25489000Y-28987840D01*
X25489000Y-28803000D01*
X32751937Y-28803000D01*
X32755000Y-28820750D01*
X32913250Y-28979000D01*
X33889000Y-28979000D01*
X33889000Y-28328250D01*
X34147000Y-28328250D01*
X34147000Y-28979000D01*
X35122750Y-28979000D01*
X35281000Y-28820750D01*
X35284063Y-28803000D01*
X35271841Y-28678910D01*
X35235646Y-28559589D01*
X35176867Y-28449622D01*
X35097764Y-28353236D01*
X35001378Y-28274133D01*
X34891411Y-28215354D01*
X34772090Y-28179159D01*
X34648000Y-28166937D01*
X34305250Y-28170000D01*
X34147000Y-28328250D01*
X33889000Y-28328250D01*
X33730750Y-28170000D01*
X33388000Y-28166937D01*
X33263910Y-28179159D01*
X33144589Y-28215354D01*
X33034622Y-28274133D01*
X32938236Y-28353236D01*
X32859133Y-28449622D01*
X32800354Y-28559589D01*
X32764159Y-28678910D01*
X32751937Y-28803000D01*
X25489000Y-28803000D01*
X25489000Y-24773329D01*
X36733000Y-24773329D01*
X36733000Y-25142671D01*
X36805056Y-25504917D01*
X36946397Y-25846145D01*
X37151593Y-26153243D01*
X37412757Y-26414407D01*
X37719855Y-26619603D01*
X38061083Y-26760944D01*
X38423329Y-26833000D01*
X38792671Y-26833000D01*
X39154917Y-26760944D01*
X39496145Y-26619603D01*
X39803243Y-26414407D01*
X40064407Y-26153243D01*
X40269603Y-25846145D01*
X40410944Y-25504917D01*
X40483000Y-25142671D01*
X40483000Y-24773329D01*
X40410944Y-24411083D01*
X40269603Y-24069855D01*
X40064407Y-23762757D01*
X39803243Y-23501593D01*
X39496145Y-23296397D01*
X39154917Y-23155056D01*
X38792671Y-23083000D01*
X38423329Y-23083000D01*
X38061083Y-23155056D01*
X37719855Y-23296397D01*
X37412757Y-23501593D01*
X37151593Y-23762757D01*
X36946397Y-24069855D01*
X36805056Y-24411083D01*
X36733000Y-24773329D01*
X25489000Y-24773329D01*
X25489000Y-22325000D01*
X51775000Y-22325000D01*
X51775001Y-54926000D01*
G37*
X51775001Y-54926000D02*
X25489000Y-54926000D01*
X25489000Y-52073329D01*
X36733000Y-52073329D01*
X36733000Y-52442671D01*
X36805056Y-52804917D01*
X36946397Y-53146145D01*
X37151593Y-53453243D01*
X37412757Y-53714407D01*
X37719855Y-53919603D01*
X38061083Y-54060944D01*
X38423329Y-54133000D01*
X38792671Y-54133000D01*
X39154917Y-54060944D01*
X39496145Y-53919603D01*
X39803243Y-53714407D01*
X40064407Y-53453243D01*
X40269603Y-53146145D01*
X40410944Y-52804917D01*
X40483000Y-52442671D01*
X40483000Y-52073329D01*
X40410944Y-51711083D01*
X40269603Y-51369855D01*
X40064407Y-51062757D01*
X39803243Y-50801593D01*
X39496145Y-50596397D01*
X39154917Y-50455056D01*
X38792671Y-50383000D01*
X38423329Y-50383000D01*
X38061083Y-50455056D01*
X37719855Y-50596397D01*
X37412757Y-50801593D01*
X37151593Y-51062757D01*
X36946397Y-51369855D01*
X36805056Y-51711083D01*
X36733000Y-52073329D01*
X25489000Y-52073329D01*
X25489000Y-45861583D01*
X26202851Y-45861583D01*
X26259549Y-46092005D01*
X26493550Y-46199844D01*
X26744093Y-46259958D01*
X27001550Y-46270039D01*
X27256026Y-46229700D01*
X27497742Y-46140489D01*
X27588451Y-46092005D01*
X27645149Y-45861583D01*
X26924000Y-45140434D01*
X26202851Y-45861583D01*
X25489000Y-45861583D01*
X25489000Y-45035550D01*
X25611961Y-45035550D01*
X25652300Y-45290026D01*
X25741511Y-45531742D01*
X25789995Y-45622451D01*
X26020417Y-45679149D01*
X26741566Y-44958000D01*
X26020417Y-44236851D01*
X25789995Y-44293549D01*
X25682156Y-44527550D01*
X25622042Y-44778093D01*
X25611961Y-45035550D01*
X25489000Y-45035550D01*
X25489000Y-43289030D01*
X25658582Y-43289030D01*
X25687928Y-43385789D01*
X25795136Y-43618715D01*
X25945726Y-43826250D01*
X26133911Y-44000419D01*
X26205351Y-44044257D01*
X26202851Y-44054417D01*
X26924000Y-44775566D01*
X27645149Y-44054417D01*
X27642649Y-44044257D01*
X27714089Y-44000419D01*
X27902274Y-43826250D01*
X27923929Y-43796407D01*
X28085522Y-43958000D01*
X27914224Y-44129298D01*
X27840273Y-44239974D01*
X27827583Y-44236851D01*
X27106434Y-44958000D01*
X27827583Y-45679149D01*
X27840273Y-45676026D01*
X27914224Y-45786702D01*
X28095298Y-45967776D01*
X28308219Y-46110045D01*
X28544804Y-46208042D01*
X28795961Y-46258000D01*
X29052039Y-46258000D01*
X29303196Y-46208042D01*
X29539781Y-46110045D01*
X29752702Y-45967776D01*
X29933776Y-45786702D01*
X30076045Y-45573781D01*
X30174042Y-45337196D01*
X30203218Y-45190518D01*
X30235382Y-45250693D01*
X30267662Y-45290026D01*
X30305624Y-45336283D01*
X30305627Y-45336286D01*
X30329106Y-45364895D01*
X30357715Y-45388374D01*
X32581626Y-47612286D01*
X32605105Y-47640895D01*
X32719307Y-47734619D01*
X32764340Y-47758690D01*
X32759976Y-47803000D01*
X32759976Y-48413000D01*
X32772043Y-48535521D01*
X32807781Y-48653334D01*
X32865817Y-48761911D01*
X32943920Y-48857080D01*
X33039089Y-48935183D01*
X33147666Y-48993219D01*
X33265479Y-49028957D01*
X33388000Y-49041024D01*
X34648000Y-49041024D01*
X34770521Y-49028957D01*
X34888334Y-48993219D01*
X34996911Y-48935183D01*
X35090959Y-48858000D01*
X35752155Y-48858000D01*
X35836480Y-48914344D01*
X36023018Y-48991610D01*
X36221046Y-49031000D01*
X36422954Y-49031000D01*
X36620982Y-48991610D01*
X36807520Y-48914344D01*
X36975400Y-48802170D01*
X37118170Y-48659400D01*
X37230344Y-48491520D01*
X37307610Y-48304982D01*
X37347000Y-48106954D01*
X37347000Y-47987840D01*
X37388000Y-47987840D01*
X37388000Y-48228160D01*
X37434884Y-48463861D01*
X37526850Y-48685887D01*
X37660364Y-48885705D01*
X37830295Y-49055636D01*
X38030113Y-49189150D01*
X38252139Y-49281116D01*
X38487840Y-49328000D01*
X38728160Y-49328000D01*
X38963861Y-49281116D01*
X39185887Y-49189150D01*
X39385705Y-49055636D01*
X39555636Y-48885705D01*
X39689150Y-48685887D01*
X39781116Y-48463861D01*
X39828000Y-48228160D01*
X39828000Y-47987840D01*
X39781116Y-47752139D01*
X39689150Y-47530113D01*
X39555636Y-47330295D01*
X39385705Y-47160364D01*
X39185887Y-47026850D01*
X38963861Y-46934884D01*
X38728160Y-46888000D01*
X38487840Y-46888000D01*
X38252139Y-46934884D01*
X38030113Y-47026850D01*
X37830295Y-47160364D01*
X37660364Y-47330295D01*
X37526850Y-47530113D01*
X37434884Y-47752139D01*
X37388000Y-47987840D01*
X37347000Y-47987840D01*
X37347000Y-47905046D01*
X37307610Y-47707018D01*
X37230344Y-47520480D01*
X37118170Y-47352600D01*
X36975400Y-47209830D01*
X36807520Y-47097656D01*
X36620982Y-47020390D01*
X36422954Y-46981000D01*
X36221046Y-46981000D01*
X36023018Y-47020390D01*
X35836480Y-47097656D01*
X35668600Y-47209830D01*
X35525830Y-47352600D01*
X35522222Y-47358000D01*
X35276024Y-47358000D01*
X35276024Y-46858000D01*
X35389173Y-46858000D01*
X35426000Y-46861627D01*
X35462827Y-46858000D01*
X35462835Y-46858000D01*
X35573026Y-46847147D01*
X35714401Y-46804261D01*
X35844693Y-46734619D01*
X35958895Y-46640895D01*
X35982378Y-46612281D01*
X36213613Y-46381046D01*
X40377000Y-46381046D01*
X40377000Y-46582954D01*
X40416390Y-46780982D01*
X40493656Y-46967520D01*
X40605830Y-47135400D01*
X40748600Y-47278170D01*
X40916480Y-47390344D01*
X41103018Y-47467610D01*
X41301046Y-47507000D01*
X41366340Y-47507000D01*
X41471626Y-47612286D01*
X41495105Y-47640895D01*
X41523714Y-47664374D01*
X41523716Y-47664376D01*
X41554096Y-47689308D01*
X41609307Y-47734619D01*
X41739599Y-47804261D01*
X41880974Y-47847147D01*
X41939976Y-47852958D01*
X41939976Y-48413000D01*
X41952043Y-48535521D01*
X41987781Y-48653334D01*
X42045817Y-48761911D01*
X42123920Y-48857080D01*
X42219089Y-48935183D01*
X42327666Y-48993219D01*
X42445479Y-49028957D01*
X42568000Y-49041024D01*
X43828000Y-49041024D01*
X43950521Y-49028957D01*
X44068334Y-48993219D01*
X44176911Y-48935183D01*
X44270959Y-48858000D01*
X45155173Y-48858000D01*
X45192000Y-48861627D01*
X45228827Y-48858000D01*
X45228835Y-48858000D01*
X45339026Y-48847147D01*
X45480401Y-48804261D01*
X45610693Y-48734619D01*
X45724895Y-48640895D01*
X45748378Y-48612281D01*
X48129126Y-46231534D01*
X48221961Y-46250000D01*
X48478039Y-46250000D01*
X48729196Y-46200042D01*
X48965781Y-46102045D01*
X49147808Y-45980419D01*
X49225236Y-46074764D01*
X49321622Y-46153867D01*
X49431589Y-46212646D01*
X49550910Y-46248841D01*
X49675000Y-46261063D01*
X50062750Y-46258000D01*
X50221000Y-46099750D01*
X50221000Y-45079000D01*
X50479000Y-45079000D01*
X50479000Y-46099750D01*
X50637250Y-46258000D01*
X51025000Y-46261063D01*
X51149090Y-46248841D01*
X51268411Y-46212646D01*
X51378378Y-46153867D01*
X51474764Y-46074764D01*
X51553867Y-45978378D01*
X51612646Y-45868411D01*
X51648841Y-45749090D01*
X51661063Y-45625000D01*
X51658000Y-45237250D01*
X51499750Y-45079000D01*
X50479000Y-45079000D01*
X50221000Y-45079000D01*
X50201000Y-45079000D01*
X50201000Y-44821000D01*
X50221000Y-44821000D01*
X50221000Y-43079000D01*
X50479000Y-43079000D01*
X50479000Y-44821000D01*
X51499750Y-44821000D01*
X51658000Y-44662750D01*
X51661063Y-44275000D01*
X51648841Y-44150910D01*
X51612646Y-44031589D01*
X51553867Y-43921622D01*
X51474764Y-43825236D01*
X51379773Y-43747277D01*
X51478864Y-43610715D01*
X51586072Y-43377789D01*
X51615418Y-43281030D01*
X51492490Y-43079000D01*
X50479000Y-43079000D01*
X50221000Y-43079000D01*
X50201000Y-43079000D01*
X50201000Y-42821000D01*
X50221000Y-42821000D01*
X50221000Y-41079000D01*
X50479000Y-41079000D01*
X50479000Y-42821000D01*
X51492490Y-42821000D01*
X51615418Y-42618970D01*
X51586072Y-42522211D01*
X51478864Y-42289285D01*
X51328274Y-42081750D01*
X51185922Y-41950000D01*
X51328274Y-41818250D01*
X51478864Y-41610715D01*
X51586072Y-41377789D01*
X51615418Y-41281030D01*
X51492490Y-41079000D01*
X50479000Y-41079000D01*
X50221000Y-41079000D01*
X50201000Y-41079000D01*
X50201000Y-40821000D01*
X50221000Y-40821000D01*
X50221000Y-39079000D01*
X50479000Y-39079000D01*
X50479000Y-40821000D01*
X51492490Y-40821000D01*
X51615418Y-40618970D01*
X51586072Y-40522211D01*
X51478864Y-40289285D01*
X51328274Y-40081750D01*
X51185922Y-39950000D01*
X51328274Y-39818250D01*
X51478864Y-39610715D01*
X51586072Y-39377789D01*
X51615418Y-39281030D01*
X51492490Y-39079000D01*
X50479000Y-39079000D01*
X50221000Y-39079000D01*
X50201000Y-39079000D01*
X50201000Y-38821000D01*
X50221000Y-38821000D01*
X50221000Y-37079000D01*
X50479000Y-37079000D01*
X50479000Y-38821000D01*
X51492490Y-38821000D01*
X51615418Y-38618970D01*
X51586072Y-38522211D01*
X51478864Y-38289285D01*
X51328274Y-38081750D01*
X51185922Y-37950000D01*
X51328274Y-37818250D01*
X51478864Y-37610715D01*
X51586072Y-37377789D01*
X51615418Y-37281030D01*
X51492490Y-37079000D01*
X50479000Y-37079000D01*
X50221000Y-37079000D01*
X50201000Y-37079000D01*
X50201000Y-36821000D01*
X50221000Y-36821000D01*
X50221000Y-35079000D01*
X50479000Y-35079000D01*
X50479000Y-36821000D01*
X51492490Y-36821000D01*
X51615418Y-36618970D01*
X51586072Y-36522211D01*
X51478864Y-36289285D01*
X51328274Y-36081750D01*
X51185922Y-35950000D01*
X51328274Y-35818250D01*
X51478864Y-35610715D01*
X51586072Y-35377789D01*
X51615418Y-35281030D01*
X51492490Y-35079000D01*
X50479000Y-35079000D01*
X50221000Y-35079000D01*
X50201000Y-35079000D01*
X50201000Y-34821000D01*
X50221000Y-34821000D01*
X50221000Y-34801000D01*
X50479000Y-34801000D01*
X50479000Y-34821000D01*
X51492490Y-34821000D01*
X51615418Y-34618970D01*
X51586072Y-34522211D01*
X51478864Y-34289285D01*
X51328274Y-34081750D01*
X51140089Y-33907581D01*
X51068649Y-33863743D01*
X51071149Y-33853583D01*
X50350000Y-33132434D01*
X49628851Y-33853583D01*
X49631351Y-33863743D01*
X49559911Y-33907581D01*
X49371726Y-34081750D01*
X49350071Y-34111593D01*
X49188478Y-33950000D01*
X49359776Y-33778702D01*
X49433727Y-33668026D01*
X49446417Y-33671149D01*
X50167566Y-32950000D01*
X50532434Y-32950000D01*
X51253583Y-33671149D01*
X51484005Y-33614451D01*
X51591844Y-33380450D01*
X51651958Y-33129907D01*
X51662039Y-32872450D01*
X51621700Y-32617974D01*
X51532489Y-32376258D01*
X51484005Y-32285549D01*
X51253583Y-32228851D01*
X50532434Y-32950000D01*
X50167566Y-32950000D01*
X49446417Y-32228851D01*
X49433727Y-32231974D01*
X49359776Y-32121298D01*
X49284895Y-32046417D01*
X49628851Y-32046417D01*
X50350000Y-32767566D01*
X51071149Y-32046417D01*
X51014451Y-31815995D01*
X50780450Y-31708156D01*
X50529907Y-31648042D01*
X50272450Y-31637961D01*
X50017974Y-31678300D01*
X49776258Y-31767511D01*
X49685549Y-31815995D01*
X49628851Y-32046417D01*
X49284895Y-32046417D01*
X49178702Y-31940224D01*
X48965781Y-31797955D01*
X48729196Y-31699958D01*
X48478039Y-31650000D01*
X48221961Y-31650000D01*
X47970804Y-31699958D01*
X47734219Y-31797955D01*
X47521298Y-31940224D01*
X47340224Y-32121298D01*
X47197955Y-32334219D01*
X47099958Y-32570804D01*
X47050000Y-32821961D01*
X47050000Y-33078039D01*
X47099958Y-33329196D01*
X47197955Y-33565781D01*
X47340224Y-33778702D01*
X47511522Y-33950000D01*
X47340224Y-34121298D01*
X47197955Y-34334219D01*
X47099958Y-34570804D01*
X47050000Y-34821961D01*
X47050000Y-35078039D01*
X47099958Y-35329196D01*
X47197955Y-35565781D01*
X47340224Y-35778702D01*
X47511522Y-35950000D01*
X47340224Y-36121298D01*
X47197955Y-36334219D01*
X47099958Y-36570804D01*
X47050000Y-36821961D01*
X47050000Y-37078039D01*
X47068466Y-37170874D01*
X44707720Y-39531621D01*
X44679105Y-39555105D01*
X44585381Y-39669308D01*
X44515739Y-39799600D01*
X44472853Y-39940975D01*
X44462000Y-40051166D01*
X44462000Y-40051173D01*
X44458373Y-40088000D01*
X44462000Y-40124828D01*
X44462001Y-42663339D01*
X44444038Y-42681302D01*
X44443957Y-42680479D01*
X44421971Y-42608000D01*
X44443957Y-42535521D01*
X44456024Y-42413000D01*
X44456024Y-41803000D01*
X44443957Y-41680479D01*
X44421971Y-41608000D01*
X44443957Y-41535521D01*
X44456024Y-41413000D01*
X44456024Y-40803000D01*
X44443957Y-40680479D01*
X44421971Y-40608000D01*
X44443957Y-40535521D01*
X44456024Y-40413000D01*
X44456024Y-39803000D01*
X44443957Y-39680479D01*
X44421971Y-39608000D01*
X44443957Y-39535521D01*
X44456024Y-39413000D01*
X44456024Y-38803000D01*
X44443957Y-38680479D01*
X44421971Y-38608000D01*
X44443957Y-38535521D01*
X44456024Y-38413000D01*
X44456024Y-37803000D01*
X44443957Y-37680479D01*
X44421971Y-37608000D01*
X44443957Y-37535521D01*
X44456024Y-37413000D01*
X44456024Y-36803000D01*
X44443957Y-36680479D01*
X44421971Y-36608000D01*
X44443957Y-36535521D01*
X44456024Y-36413000D01*
X44456024Y-35803000D01*
X44443957Y-35680479D01*
X44421971Y-35608000D01*
X44443957Y-35535521D01*
X44456024Y-35413000D01*
X44456024Y-34803000D01*
X44443957Y-34680479D01*
X44421971Y-34608000D01*
X44443957Y-34535521D01*
X44456024Y-34413000D01*
X44456024Y-33803000D01*
X44443957Y-33680479D01*
X44421971Y-33608000D01*
X44443957Y-33535521D01*
X44456024Y-33413000D01*
X44456024Y-32803000D01*
X44443957Y-32680479D01*
X44421971Y-32608000D01*
X44443957Y-32535521D01*
X44456024Y-32413000D01*
X44456024Y-31803000D01*
X44443957Y-31680479D01*
X44421971Y-31608000D01*
X44443957Y-31535521D01*
X44456024Y-31413000D01*
X44456024Y-30803000D01*
X44443957Y-30680479D01*
X44421971Y-30608000D01*
X44443957Y-30535521D01*
X44456024Y-30413000D01*
X44456024Y-29803000D01*
X44443957Y-29680479D01*
X44421971Y-29608000D01*
X44443957Y-29535521D01*
X44456024Y-29413000D01*
X44456024Y-28803000D01*
X44443957Y-28680479D01*
X44408219Y-28562666D01*
X44350183Y-28454089D01*
X44272080Y-28358920D01*
X44176911Y-28280817D01*
X44068334Y-28222781D01*
X43950521Y-28187043D01*
X43828000Y-28174976D01*
X42568000Y-28174976D01*
X42445479Y-28187043D01*
X42327666Y-28222781D01*
X42219089Y-28280817D01*
X42123920Y-28358920D01*
X42045817Y-28454089D01*
X41987781Y-28562666D01*
X41952043Y-28680479D01*
X41939976Y-28803000D01*
X41939976Y-29413000D01*
X41952043Y-29535521D01*
X41974029Y-29608000D01*
X41952043Y-29680479D01*
X41939976Y-29803000D01*
X41939976Y-30413000D01*
X41952043Y-30535521D01*
X41974029Y-30608000D01*
X41952043Y-30680479D01*
X41939976Y-30803000D01*
X41939976Y-31413000D01*
X41952043Y-31535521D01*
X41974029Y-31608000D01*
X41952043Y-31680479D01*
X41939976Y-31803000D01*
X41939976Y-32413000D01*
X41952043Y-32535521D01*
X41974029Y-32608000D01*
X41952043Y-32680479D01*
X41939976Y-32803000D01*
X41939976Y-33413000D01*
X41952043Y-33535521D01*
X41974029Y-33608000D01*
X41952043Y-33680479D01*
X41939976Y-33803000D01*
X41939976Y-34413000D01*
X41952043Y-34535521D01*
X41974029Y-34608000D01*
X41952043Y-34680479D01*
X41939976Y-34803000D01*
X41939976Y-35413000D01*
X41952043Y-35535521D01*
X41974029Y-35608000D01*
X41952043Y-35680479D01*
X41939976Y-35803000D01*
X41939976Y-36413000D01*
X41952043Y-36535521D01*
X41974029Y-36608000D01*
X41952043Y-36680479D01*
X41939976Y-36803000D01*
X41939976Y-37413000D01*
X41952043Y-37535521D01*
X41974029Y-37608000D01*
X41952043Y-37680479D01*
X41939976Y-37803000D01*
X41939976Y-38413000D01*
X41952043Y-38535521D01*
X41974029Y-38608000D01*
X41952043Y-38680479D01*
X41939976Y-38803000D01*
X41939976Y-39413000D01*
X41952043Y-39535521D01*
X41974029Y-39608000D01*
X41952043Y-39680479D01*
X41939976Y-39803000D01*
X41939976Y-40413000D01*
X41952043Y-40535521D01*
X41974029Y-40608000D01*
X41952043Y-40680479D01*
X41939976Y-40803000D01*
X41939976Y-41413000D01*
X41952043Y-41535521D01*
X41974029Y-41608000D01*
X41952043Y-41680479D01*
X41939976Y-41803000D01*
X41939976Y-42413000D01*
X41952043Y-42535521D01*
X41974029Y-42608000D01*
X41952043Y-42680479D01*
X41939976Y-42803000D01*
X41939976Y-43413000D01*
X41952043Y-43535521D01*
X41974029Y-43608000D01*
X41952043Y-43680479D01*
X41939976Y-43803000D01*
X41939976Y-44413000D01*
X41952043Y-44535521D01*
X41974029Y-44608000D01*
X41952043Y-44680479D01*
X41939976Y-44803000D01*
X41939976Y-45413000D01*
X41952043Y-45535521D01*
X41974029Y-45608000D01*
X41968112Y-45627506D01*
X41887520Y-45573656D01*
X41700982Y-45496390D01*
X41502954Y-45457000D01*
X41301046Y-45457000D01*
X41103018Y-45496390D01*
X40916480Y-45573656D01*
X40748600Y-45685830D01*
X40605830Y-45828600D01*
X40493656Y-45996480D01*
X40416390Y-46183018D01*
X40377000Y-46381046D01*
X36213613Y-46381046D01*
X36357660Y-46237000D01*
X36422954Y-46237000D01*
X36620982Y-46197610D01*
X36807520Y-46120344D01*
X36975400Y-46008170D01*
X37118170Y-45865400D01*
X37230344Y-45697520D01*
X37307610Y-45510982D01*
X37347000Y-45312954D01*
X37347000Y-45111046D01*
X37307610Y-44913018D01*
X37230344Y-44726480D01*
X37118170Y-44558600D01*
X36975400Y-44415830D01*
X36807520Y-44303656D01*
X36620982Y-44226390D01*
X36422954Y-44187000D01*
X36221046Y-44187000D01*
X36023018Y-44226390D01*
X35836480Y-44303656D01*
X35668600Y-44415830D01*
X35525830Y-44558600D01*
X35413656Y-44726480D01*
X35336390Y-44913018D01*
X35297000Y-45111046D01*
X35297000Y-45176340D01*
X35276024Y-45197316D01*
X35276024Y-44803000D01*
X35263957Y-44680479D01*
X35241971Y-44608000D01*
X35263957Y-44535521D01*
X35276024Y-44413000D01*
X35276024Y-43803000D01*
X35263957Y-43680479D01*
X35246151Y-43621780D01*
X35271841Y-43537090D01*
X35284063Y-43413000D01*
X35281000Y-43395250D01*
X35122750Y-43237000D01*
X34914936Y-43237000D01*
X34888334Y-43222781D01*
X34770521Y-43187043D01*
X34648000Y-43174976D01*
X33869000Y-43174976D01*
X33869000Y-43041024D01*
X34648000Y-43041024D01*
X34770521Y-43028957D01*
X34888334Y-42993219D01*
X34914936Y-42979000D01*
X35122750Y-42979000D01*
X35281000Y-42820750D01*
X35284063Y-42803000D01*
X35271841Y-42678910D01*
X35246151Y-42594220D01*
X35263957Y-42535521D01*
X35276024Y-42413000D01*
X35276024Y-41803000D01*
X35263957Y-41680479D01*
X35241971Y-41608000D01*
X35263957Y-41535521D01*
X35276024Y-41413000D01*
X35276024Y-40803000D01*
X35263957Y-40680479D01*
X35241971Y-40608000D01*
X35263957Y-40535521D01*
X35276024Y-40413000D01*
X35276024Y-39803000D01*
X35263957Y-39680479D01*
X35241971Y-39608000D01*
X35263957Y-39535521D01*
X35276024Y-39413000D01*
X35276024Y-38803000D01*
X35263957Y-38680479D01*
X35241971Y-38608000D01*
X35263957Y-38535521D01*
X35276024Y-38413000D01*
X35276024Y-37803000D01*
X35263957Y-37680479D01*
X35241971Y-37608000D01*
X35263957Y-37535521D01*
X35276024Y-37413000D01*
X35276024Y-36803000D01*
X35263957Y-36680479D01*
X35241971Y-36608000D01*
X35263957Y-36535521D01*
X35276024Y-36413000D01*
X35276024Y-35803000D01*
X35263957Y-35680479D01*
X35241971Y-35608000D01*
X35263957Y-35535521D01*
X35276024Y-35413000D01*
X35276024Y-34803000D01*
X35263957Y-34680479D01*
X35241971Y-34608000D01*
X35263957Y-34535521D01*
X35276024Y-34413000D01*
X35276024Y-33803000D01*
X35263957Y-33680479D01*
X35241971Y-33608000D01*
X35263957Y-33535521D01*
X35276024Y-33413000D01*
X35276024Y-32803000D01*
X35263957Y-32680479D01*
X35241971Y-32608000D01*
X35263957Y-32535521D01*
X35276024Y-32413000D01*
X35276024Y-31803000D01*
X35263957Y-31680479D01*
X35241971Y-31608000D01*
X35263957Y-31535521D01*
X35276024Y-31413000D01*
X35276024Y-30803000D01*
X35263957Y-30680479D01*
X35241971Y-30608000D01*
X35263957Y-30535521D01*
X35276024Y-30413000D01*
X35276024Y-29803000D01*
X35263957Y-29680479D01*
X35246151Y-29621780D01*
X35271841Y-29537090D01*
X35284063Y-29413000D01*
X35281000Y-29395250D01*
X35122750Y-29237000D01*
X34914936Y-29237000D01*
X34888334Y-29222781D01*
X34770521Y-29187043D01*
X34648000Y-29174976D01*
X33388000Y-29174976D01*
X33265479Y-29187043D01*
X33147666Y-29222781D01*
X33121064Y-29237000D01*
X32913250Y-29237000D01*
X32755000Y-29395250D01*
X32751937Y-29413000D01*
X32764159Y-29537090D01*
X32789849Y-29621780D01*
X32772043Y-29680479D01*
X32759976Y-29803000D01*
X32759976Y-30413000D01*
X32772043Y-30535521D01*
X32794029Y-30608000D01*
X32772043Y-30680479D01*
X32759976Y-30803000D01*
X32759976Y-31413000D01*
X32772043Y-31535521D01*
X32794029Y-31608000D01*
X32772043Y-31680479D01*
X32759976Y-31803000D01*
X32759976Y-32413000D01*
X32772043Y-32535521D01*
X32794029Y-32608000D01*
X32772043Y-32680479D01*
X32759976Y-32803000D01*
X32759976Y-33413000D01*
X32772043Y-33535521D01*
X32794029Y-33608000D01*
X32772043Y-33680479D01*
X32759976Y-33803000D01*
X32759976Y-34413000D01*
X32772043Y-34535521D01*
X32794029Y-34608000D01*
X32772043Y-34680479D01*
X32759976Y-34803000D01*
X32759976Y-35413000D01*
X32772043Y-35535521D01*
X32794029Y-35608000D01*
X32772043Y-35680479D01*
X32759976Y-35803000D01*
X32759976Y-36413000D01*
X32772043Y-36535521D01*
X32794029Y-36608000D01*
X32772043Y-36680479D01*
X32759976Y-36803000D01*
X32759976Y-37413000D01*
X32772043Y-37535521D01*
X32794029Y-37608000D01*
X32772043Y-37680479D01*
X32759976Y-37803000D01*
X32759976Y-38413000D01*
X32772043Y-38535521D01*
X32794029Y-38608000D01*
X32772043Y-38680479D01*
X32759976Y-38803000D01*
X32759976Y-39413000D01*
X32772043Y-39535521D01*
X32794029Y-39608000D01*
X32772043Y-39680479D01*
X32759976Y-39803000D01*
X32759976Y-39996652D01*
X32743520Y-39985656D01*
X32556982Y-39908390D01*
X32358954Y-39869000D01*
X32157046Y-39869000D01*
X31959018Y-39908390D01*
X31772480Y-39985656D01*
X31612000Y-40092885D01*
X31612000Y-38932827D01*
X31615627Y-38896000D01*
X31612000Y-38859172D01*
X31612000Y-38859165D01*
X31601147Y-38748974D01*
X31558261Y-38607599D01*
X31488619Y-38477307D01*
X31394895Y-38363105D01*
X31366287Y-38339627D01*
X30205534Y-37178875D01*
X30224000Y-37086039D01*
X30224000Y-36829961D01*
X30174042Y-36578804D01*
X30076045Y-36342219D01*
X29933776Y-36129298D01*
X29762478Y-35958000D01*
X29933776Y-35786702D01*
X30076045Y-35573781D01*
X30174042Y-35337196D01*
X30224000Y-35086039D01*
X30224000Y-34829961D01*
X30174042Y-34578804D01*
X30076045Y-34342219D01*
X29933776Y-34129298D01*
X29762478Y-33958000D01*
X29933776Y-33786702D01*
X30076045Y-33573781D01*
X30174042Y-33337196D01*
X30224000Y-33086039D01*
X30224000Y-32829961D01*
X30174042Y-32578804D01*
X30076045Y-32342219D01*
X29933776Y-32129298D01*
X29752702Y-31948224D01*
X29539781Y-31805955D01*
X29303196Y-31707958D01*
X29052039Y-31658000D01*
X28795961Y-31658000D01*
X28544804Y-31707958D01*
X28308219Y-31805955D01*
X28126192Y-31927581D01*
X28048764Y-31833236D01*
X27952378Y-31754133D01*
X27842411Y-31695354D01*
X27723090Y-31659159D01*
X27599000Y-31646937D01*
X27211250Y-31650000D01*
X27053000Y-31808250D01*
X27053000Y-32829000D01*
X27073000Y-32829000D01*
X27073000Y-33087000D01*
X27053000Y-33087000D01*
X27053000Y-34829000D01*
X27073000Y-34829000D01*
X27073000Y-35087000D01*
X27053000Y-35087000D01*
X27053000Y-36829000D01*
X27073000Y-36829000D01*
X27073000Y-37087000D01*
X27053000Y-37087000D01*
X27053000Y-38829000D01*
X27073000Y-38829000D01*
X27073000Y-39087000D01*
X27053000Y-39087000D01*
X27053000Y-40829000D01*
X27073000Y-40829000D01*
X27073000Y-41087000D01*
X27053000Y-41087000D01*
X27053000Y-42829000D01*
X27073000Y-42829000D01*
X27073000Y-43087000D01*
X27053000Y-43087000D01*
X27053000Y-43107000D01*
X26795000Y-43107000D01*
X26795000Y-43087000D01*
X25781510Y-43087000D01*
X25658582Y-43289030D01*
X25489000Y-43289030D01*
X25489000Y-41289030D01*
X25658582Y-41289030D01*
X25687928Y-41385789D01*
X25795136Y-41618715D01*
X25945726Y-41826250D01*
X26088078Y-41958000D01*
X25945726Y-42089750D01*
X25795136Y-42297285D01*
X25687928Y-42530211D01*
X25658582Y-42626970D01*
X25781510Y-42829000D01*
X26795000Y-42829000D01*
X26795000Y-41087000D01*
X25781510Y-41087000D01*
X25658582Y-41289030D01*
X25489000Y-41289030D01*
X25489000Y-39289030D01*
X25658582Y-39289030D01*
X25687928Y-39385789D01*
X25795136Y-39618715D01*
X25945726Y-39826250D01*
X26088078Y-39958000D01*
X25945726Y-40089750D01*
X25795136Y-40297285D01*
X25687928Y-40530211D01*
X25658582Y-40626970D01*
X25781510Y-40829000D01*
X26795000Y-40829000D01*
X26795000Y-39087000D01*
X25781510Y-39087000D01*
X25658582Y-39289030D01*
X25489000Y-39289030D01*
X25489000Y-37289030D01*
X25658582Y-37289030D01*
X25687928Y-37385789D01*
X25795136Y-37618715D01*
X25945726Y-37826250D01*
X26088078Y-37958000D01*
X25945726Y-38089750D01*
X25795136Y-38297285D01*
X25687928Y-38530211D01*
X25658582Y-38626970D01*
X25781510Y-38829000D01*
X26795000Y-38829000D01*
X26795000Y-37087000D01*
X25781510Y-37087000D01*
X25658582Y-37289030D01*
X25489000Y-37289030D01*
X25489000Y-35289030D01*
X25658582Y-35289030D01*
X25687928Y-35385789D01*
X25795136Y-35618715D01*
X25945726Y-35826250D01*
X26088078Y-35958000D01*
X25945726Y-36089750D01*
X25795136Y-36297285D01*
X25687928Y-36530211D01*
X25658582Y-36626970D01*
X25781510Y-36829000D01*
X26795000Y-36829000D01*
X26795000Y-35087000D01*
X25781510Y-35087000D01*
X25658582Y-35289030D01*
X25489000Y-35289030D01*
X25489000Y-33633000D01*
X25612937Y-33633000D01*
X25625159Y-33757090D01*
X25661354Y-33876411D01*
X25720133Y-33986378D01*
X25799236Y-34082764D01*
X25894227Y-34160723D01*
X25795136Y-34297285D01*
X25687928Y-34530211D01*
X25658582Y-34626970D01*
X25781510Y-34829000D01*
X26795000Y-34829000D01*
X26795000Y-33087000D01*
X25774250Y-33087000D01*
X25616000Y-33245250D01*
X25612937Y-33633000D01*
X25489000Y-33633000D01*
X25489000Y-32283000D01*
X25612937Y-32283000D01*
X25616000Y-32670750D01*
X25774250Y-32829000D01*
X26795000Y-32829000D01*
X26795000Y-31808250D01*
X26636750Y-31650000D01*
X26249000Y-31646937D01*
X26124910Y-31659159D01*
X26005589Y-31695354D01*
X25895622Y-31754133D01*
X25799236Y-31833236D01*
X25720133Y-31929622D01*
X25661354Y-32039589D01*
X25625159Y-32158910D01*
X25612937Y-32283000D01*
X25489000Y-32283000D01*
X25489000Y-28987840D01*
X37388000Y-28987840D01*
X37388000Y-29228160D01*
X37434884Y-29463861D01*
X37526850Y-29685887D01*
X37660364Y-29885705D01*
X37830295Y-30055636D01*
X38030113Y-30189150D01*
X38252139Y-30281116D01*
X38487840Y-30328000D01*
X38728160Y-30328000D01*
X38963861Y-30281116D01*
X39185887Y-30189150D01*
X39385705Y-30055636D01*
X39555636Y-29885705D01*
X39689150Y-29685887D01*
X39781116Y-29463861D01*
X39828000Y-29228160D01*
X39828000Y-28987840D01*
X39781116Y-28752139D01*
X39689150Y-28530113D01*
X39555636Y-28330295D01*
X39385705Y-28160364D01*
X39185887Y-28026850D01*
X38963861Y-27934884D01*
X38728160Y-27888000D01*
X38487840Y-27888000D01*
X38252139Y-27934884D01*
X38030113Y-28026850D01*
X37830295Y-28160364D01*
X37660364Y-28330295D01*
X37526850Y-28530113D01*
X37434884Y-28752139D01*
X37388000Y-28987840D01*
X25489000Y-28987840D01*
X25489000Y-28803000D01*
X32751937Y-28803000D01*
X32755000Y-28820750D01*
X32913250Y-28979000D01*
X33889000Y-28979000D01*
X33889000Y-28328250D01*
X34147000Y-28328250D01*
X34147000Y-28979000D01*
X35122750Y-28979000D01*
X35281000Y-28820750D01*
X35284063Y-28803000D01*
X35271841Y-28678910D01*
X35235646Y-28559589D01*
X35176867Y-28449622D01*
X35097764Y-28353236D01*
X35001378Y-28274133D01*
X34891411Y-28215354D01*
X34772090Y-28179159D01*
X34648000Y-28166937D01*
X34305250Y-28170000D01*
X34147000Y-28328250D01*
X33889000Y-28328250D01*
X33730750Y-28170000D01*
X33388000Y-28166937D01*
X33263910Y-28179159D01*
X33144589Y-28215354D01*
X33034622Y-28274133D01*
X32938236Y-28353236D01*
X32859133Y-28449622D01*
X32800354Y-28559589D01*
X32764159Y-28678910D01*
X32751937Y-28803000D01*
X25489000Y-28803000D01*
X25489000Y-24773329D01*
X36733000Y-24773329D01*
X36733000Y-25142671D01*
X36805056Y-25504917D01*
X36946397Y-25846145D01*
X37151593Y-26153243D01*
X37412757Y-26414407D01*
X37719855Y-26619603D01*
X38061083Y-26760944D01*
X38423329Y-26833000D01*
X38792671Y-26833000D01*
X39154917Y-26760944D01*
X39496145Y-26619603D01*
X39803243Y-26414407D01*
X40064407Y-26153243D01*
X40269603Y-25846145D01*
X40410944Y-25504917D01*
X40483000Y-25142671D01*
X40483000Y-24773329D01*
X40410944Y-24411083D01*
X40269603Y-24069855D01*
X40064407Y-23762757D01*
X39803243Y-23501593D01*
X39496145Y-23296397D01*
X39154917Y-23155056D01*
X38792671Y-23083000D01*
X38423329Y-23083000D01*
X38061083Y-23155056D01*
X37719855Y-23296397D01*
X37412757Y-23501593D01*
X37151593Y-23762757D01*
X36946397Y-24069855D01*
X36805056Y-24411083D01*
X36733000Y-24773329D01*
X25489000Y-24773329D01*
X25489000Y-22325000D01*
X51775000Y-22325000D01*
X51775001Y-54926000D01*
%TD*%
M02*
