%TF.GenerationSoftware,KiCad,Pcbnew,(5.1.6-0-10_14)*%
%TF.CreationDate,2020-12-10T12:41:56-07:00*%
%TF.ProjectId,DX7-JTAG,4458372d-4a54-4414-972e-6b696361645f,rev?*%
%TF.SameCoordinates,Original*%
%TF.FileFunction,Soldermask,Bot*%
%TF.FilePolarity,Negative*%
%FSLAX46Y46*%
G04 Gerber Fmt 4.6, Leading zero omitted, Abs format (unit mm)*
G04 Created by KiCad (PCBNEW (5.1.6-0-10_14)) date 2020-12-10 12:41:56*
%MOMM*%
%LPD*%
G01*
G04 APERTURE LIST*
%ADD10C,2.600000*%
%ADD11C,1.450000*%
%ADD12O,1.450000X1.450000*%
%ADD13R,1.450000X1.450000*%
%ADD14R,1.360000X0.710000*%
%ADD15C,1.290000*%
G04 APERTURE END LIST*
D10*
%TO.C,REF\u002A\u002A*%
X38608000Y-24958000D03*
%TD*%
%TO.C,REF\u002A\u002A*%
X38608000Y-52258000D03*
%TD*%
D11*
%TO.C,LCMXO2 JTAG*%
X50350000Y-32950000D03*
D12*
X48350000Y-32950000D03*
X50350000Y-34950000D03*
X48350000Y-34950000D03*
X50350000Y-36950000D03*
X48350000Y-36950000D03*
X50350000Y-38950000D03*
X48350000Y-38950000D03*
X50350000Y-40950000D03*
X48350000Y-40950000D03*
X50350000Y-42950000D03*
X48350000Y-42950000D03*
D13*
X50350000Y-44950000D03*
D12*
X48350000Y-44950000D03*
%TD*%
D11*
%TO.C,XC7K70T JTAG*%
X26924000Y-44958000D03*
D12*
X28924000Y-44958000D03*
X26924000Y-42958000D03*
X28924000Y-42958000D03*
X26924000Y-40958000D03*
X28924000Y-40958000D03*
X26924000Y-38958000D03*
X28924000Y-38958000D03*
X26924000Y-36958000D03*
X28924000Y-36958000D03*
X26924000Y-34958000D03*
X28924000Y-34958000D03*
D13*
X26924000Y-32958000D03*
D12*
X28924000Y-32958000D03*
%TD*%
D14*
%TO.C,J2*%
X34018000Y-46108000D03*
X34018000Y-47108000D03*
X34018000Y-48108000D03*
X34018000Y-45108000D03*
X34018000Y-44108000D03*
X43198000Y-46108000D03*
X43198000Y-47108000D03*
X43198000Y-48108000D03*
X43198000Y-45108000D03*
X43198000Y-44108000D03*
X43198000Y-43108000D03*
X34018000Y-43108000D03*
X43198000Y-42108000D03*
X34018000Y-42108000D03*
X43198000Y-41108000D03*
X34018000Y-41108000D03*
X43198000Y-40108000D03*
X34018000Y-40108000D03*
X43198000Y-39108000D03*
X34018000Y-39108000D03*
X43198000Y-38108000D03*
X34018000Y-38108000D03*
X43198000Y-37108000D03*
X34018000Y-37108000D03*
X43198000Y-36108000D03*
X34018000Y-36108000D03*
X43198000Y-35108000D03*
X34018000Y-35108000D03*
X43198000Y-34108000D03*
X34018000Y-34108000D03*
X43198000Y-33108000D03*
X34018000Y-33108000D03*
X43198000Y-32108000D03*
X34018000Y-32108000D03*
X43198000Y-31108000D03*
X34018000Y-31108000D03*
X43198000Y-30108000D03*
X34018000Y-30108000D03*
X43198000Y-29108000D03*
X34018000Y-29108000D03*
D15*
X38608000Y-48108000D03*
X38608000Y-29108000D03*
%TD*%
M02*
