M48
METRIC
T1C0.400
T2C0.800
T3C1.190
T4C2.500
%
G90
G05
T1
X32.258Y-40.894
X32.512Y-43.688
X36.322Y-45.212
X36.322Y-48.006
X41.402Y-46.482
T2
X26.924Y-32.958
X26.924Y-34.958
X26.924Y-36.958
X26.924Y-38.958
X26.924Y-40.958
X26.924Y-42.958
X26.924Y-44.958
X28.924Y-32.958
X28.924Y-34.958
X28.924Y-36.958
X28.924Y-38.958
X28.924Y-40.958
X28.924Y-42.958
X28.924Y-44.958
X48.35Y-32.95
X48.35Y-34.95
X48.35Y-36.95
X48.35Y-38.95
X48.35Y-40.95
X48.35Y-42.95
X48.35Y-44.95
X50.35Y-32.95
X50.35Y-34.95
X50.35Y-36.95
X50.35Y-38.95
X50.35Y-40.95
X50.35Y-42.95
X50.35Y-44.95
T3
X38.608Y-29.108
X38.608Y-48.108
T4
X38.608Y-24.958
X38.608Y-52.258
T0
M30
